<?xml version="1.0" encoding="UTF-8"?>
<svg id="Ebene_1" data-name="Ebene 1" xmlns="http://www.w3.org/2000/svg" viewBox="0 0 777.9 292.68">
	<defs>
		<style>
			.cls-1 {
				letter-spacing: 0.09em;
			}

			.cls-1,
			.cls-2,
			.cls-3,
			.cls-4,
			.cls-5,
			.cls-6,
			.cls-7,
			.cls-8,
			.cls-9,
			.cls-10,
			.cls-11,
			.cls-12,
			.cls-13,
			.cls-14,
			.cls-15,
			.cls-16,
			.cls-17,
			.cls-18,
			.cls-19,
			.cls-20,
			.cls-21,
			.cls-22,
			.cls-23,
			.cls-24,
			.cls-25,
			.cls-26,
			.cls-27,
			.cls-28,
			.cls-29,
			.cls-30,
			.cls-31,
			.cls-32,
			.cls-33,
			.cls-34,
			.cls-35,
			.cls-36,
			.cls-37,
			.cls-38,
			.cls-39,
			.cls-40,
			.cls-41,
			.cls-42,
			.cls-43,
			.cls-44,
			.cls-45,
			.cls-46 {
				fill: #006c8e;
			}

			.cls-1,
			.cls-2,
			.cls-3,
			.cls-4,
			.cls-5,
			.cls-6,
			.cls-7,
			.cls-8,
			.cls-9,
			.cls-10,
			.cls-11,
			.cls-12,
			.cls-13,
			.cls-14,
			.cls-15,
			.cls-16,
			.cls-17,
			.cls-18,
			.cls-19,
			.cls-20,
			.cls-21,
			.cls-22,
			.cls-23,
			.cls-24,
			.cls-25,
			.cls-26,
			.cls-27,
			.cls-28,
			.cls-29,
			.cls-30,
			.cls-31,
			.cls-32,
			.cls-33,
			.cls-34,
			.cls-35,
			.cls-36,
			.cls-37,
			.cls-38,
			.cls-39,
			.cls-41,
			.cls-42,
			.cls-43,
			.cls-44,
			.cls-45,
			.cls-46 {
				font-size: 9.62px;
			}

			.cls-1,
			.cls-2,
			.cls-3,
			.cls-5,
			.cls-7,
			.cls-8,
			.cls-9,
			.cls-10,
			.cls-11,
			.cls-13,
			.cls-14,
			.cls-15,
			.cls-16,
			.cls-17,
			.cls-18,
			.cls-19,
			.cls-20,
			.cls-21,
			.cls-23,
			.cls-24,
			.cls-26,
			.cls-28,
			.cls-29,
			.cls-30,
			.cls-32,
			.cls-33,
			.cls-34,
			.cls-35,
			.cls-47,
			.cls-36,
			.cls-37,
			.cls-38,
			.cls-39,
			.cls-41,
			.cls-42,
			.cls-48,
			.cls-43,
			.cls-44,
			.cls-46 {
				font-family: GolosText-Medium, "Golos Text";
				font-variation-settings: "wght" 500;
				font-weight: 500;
			}

			.cls-2 {
				letter-spacing: 0.1em;
			}

			.cls-49 {
				letter-spacing: 0.01em;
			}

			.cls-49,
			.cls-50,
			.cls-51,
			.cls-52,
			.cls-53,
			.cls-54,
			.cls-55,
			.cls-56,
			.cls-47,
			.cls-57,
			.cls-48 {
				fill: #e94e24;
			}

			.cls-49,
			.cls-51,
			.cls-56 {
				font-family: GolosText-Regular, "Golos Text";
				font-size: 21.41px;
				font-variation-settings: "wght" 400;
			}

			.cls-3 {
				letter-spacing: 0.09em;
			}

			.cls-58 {
				stroke-width: 0.56px;
			}

			.cls-58,
			.cls-59,
			.cls-60,
			.cls-61,
			.cls-62,
			.cls-63,
			.cls-64,
			.cls-65 {
				fill: none;
			}

			.cls-58,
			.cls-62,
			.cls-65 {
				stroke: #006c8e;
			}

			.cls-58,
			.cls-64 {
				stroke-miterlimit: 10;
			}

			.cls-4 {
				letter-spacing: 0.11em;
			}

			.cls-4,
			.cls-6,
			.cls-12,
			.cls-22,
			.cls-25,
			.cls-27,
			.cls-31,
			.cls-45 {
				font-family: GolosText-SemiBold, "Golos Text";
				font-variation-settings: "wght" 600;
				font-weight: 600;
			}

			.cls-5 {
				letter-spacing: 0.07em;
			}

			.cls-6 {
				letter-spacing: 0.12em;
			}

			.cls-7 {
				letter-spacing: 0.05em;
			}

			.cls-66 {
				fill: #f2f8f9;
			}

			.cls-67 {
				fill: #fff;
			}

			.cls-8 {
				letter-spacing: 0.08em;
			}

			.cls-9 {
				letter-spacing: 0.06em;
			}

			.cls-59 {
				stroke-width: 2px;
			}

			.cls-59,
			.cls-60,
			.cls-61,
			.cls-63,
			.cls-64 {
				stroke: #e94e24;
			}

			.cls-50 {
				letter-spacing: 0.6em;
			}

			.cls-50,
			.cls-52,
			.cls-53,
			.cls-54,
			.cls-55,
			.cls-57 {
				font-size: 7.62px;
			}

			.cls-50,
			.cls-52,
			.cls-53,
			.cls-54,
			.cls-55,
			.cls-57,
			.cls-40 {
				font-family: GolosText-Bold, "Golos Text";
				font-variation-settings: "wght" 700;
				font-weight: 700;
			}

			.cls-10 {
				letter-spacing: 0.06em;
			}

			.cls-11 {
				letter-spacing: 0.06em;
			}

			.cls-52 {
				letter-spacing: 0.59em;
			}

			.cls-53 {
				letter-spacing: 0.58em;
			}

			.cls-12 {
				letter-spacing: 0.09em;
			}

			.cls-54 {
				letter-spacing: 0.59em;
			}

			.cls-55 {
				letter-spacing: 0.6em;
			}

			.cls-13 {
				letter-spacing: 0.07em;
			}

			.cls-14 {
				letter-spacing: 0.06em;
			}

			.cls-15 {
				letter-spacing: 0.06em;
			}

			.cls-16 {
				letter-spacing: 0.07em;
			}

			.cls-17 {
				letter-spacing: 0.06em;
			}

			.cls-18 {
				letter-spacing: 0.06em;
			}

			.cls-19 {
				letter-spacing: 0.07em;
			}

			.cls-20 {
				letter-spacing: 0.03em;
			}

			.cls-21 {
				letter-spacing: 0.07em;
			}

			.cls-56 {
				letter-spacing: 0em;
			}

			.cls-22 {
				letter-spacing: 0.04em;
			}

			.cls-23 {
				letter-spacing: 0.07em;
			}

			.cls-24 {
				letter-spacing: 0.06em;
			}

			.cls-25 {
				letter-spacing: 7.81em;
			}

			.cls-26 {
				letter-spacing: 0.05em;
			}

			.cls-27 {
				letter-spacing: 0.1em;
			}

			.cls-28 {
				letter-spacing: 0.1em;
			}

			.cls-60 {
				stroke-linecap: round;
				stroke-width: 3px;
			}

			.cls-29 {
				letter-spacing: 0.08em;
			}

			.cls-30 {
				letter-spacing: 0.07em;
			}

			.cls-31 {
				letter-spacing: 0.11em;
			}

			.cls-32 {
				letter-spacing: 0.07em;
			}

			.cls-33 {
				letter-spacing: 0.07em;
			}

			.cls-34 {
				letter-spacing: 0.07em;
			}

			.cls-61 {
				stroke-width: 1.09px;
			}

			.cls-35 {
				letter-spacing: 0.07em;
			}

			.cls-47 {
				letter-spacing: 0.1em;
			}

			.cls-47,
			.cls-48 {
				font-size: 11.27px;
			}

			.cls-64 {
				stroke-width: 0.67px;
			}

			.cls-65 {
				stroke-width: 0.75px;
			}

			.cls-36 {
				letter-spacing: 0.06em;
			}

			.cls-37 {
				letter-spacing: 0.06em;
			}

			.cls-57 {
				letter-spacing: 0.6em;
			}

			.cls-38 {
				letter-spacing: 0.04em;
			}

			.cls-39 {
				letter-spacing: 0.08em;
			}

			.cls-40 {
				font-size: 10.44px;
			}

			.cls-42 {
				letter-spacing: 0.06em;
			}

			.cls-43 {
				letter-spacing: 0.06em;
			}

			.cls-44 {
				letter-spacing: 0.06em;
			}

			.cls-45 {
				letter-spacing: 0.11em;
			}

			.cls-46 {
				letter-spacing: 0.06em;
			}
		</style>
	</defs>
	<polyline
		class="cls-66"
		points="298.14 229.61 298.14 257.81 675.85 257.81 675.85 265.75 699.24 243.78 676.56 221.81 676.56 229.61 298.14 229.61"
	/>
	<polyline
		class="cls-65"
		points="298.14 229.61 298.14 257.81 675.85 257.81 675.85 265.75 699.24 243.78 676.56 221.81 676.56 229.61 298.14 229.61"
	/>
	<line class="cls-58" x1="26.01" y1="40.16" x2="267.44" y2="40.16" />
	<text class="cls-56" transform="translate(26.01 37.91)"><tspan x="0" y="0">Cities</tspan></text>
	<text class="cls-49" transform="translate(85.07 37.91)">
		<tspan x="0" y="0" xml:space="preserve">Dr</tspan>
	</text>
	<text class="cls-49" transform="translate(114.65 37.91)">
		<tspan x="0" y="0">esden &amp; Esse</tspan>
	</text>
	<text class="cls-51" transform="translate(254.27 37.91)"><tspan x="0" y="0">n</tspan></text>
	<text class="cls-47" transform="translate(267.44 37.9)">
		<tspan x="0" y="0" xml:space="preserve"></tspan>
	</text>
	<text class="cls-48" transform="translate(274.85 37.9)"><tspan x="0" y="0"></tspan></text>
	<text class="cls-48" transform="translate(278.35 37.9)"><tspan x="0" y="0"></tspan></text>
	<text class="cls-31" transform="translate(320.52 61.21)"><tspan x="0" y="0">STUDIU</tspan></text>
	<text class="cls-25" transform="translate(363.53 61.21)"><tspan x="0" y="0">MR</tspan></text>
	<text class="cls-6" transform="translate(454.79 61.21)"><tspan x="0" y="0">EF</tspan></text>
	<text class="cls-6" transform="translate(468.65 61.21)"><tspan x="0" y="0">EN</tspan></text>
	<text class="cls-12" transform="translate(484.14 61.21)"><tspan x="0" y="0">DA</tspan></text>
	<text class="cls-27" transform="translate(499.54 61.21)"><tspan x="0" y="0">RI</tspan></text>
	<text class="cls-22" transform="translate(511.38 61.21)"><tspan x="0" y="0">AT</tspan></text>
	<text class="cls-45" transform="translate(579.36 61.21)"><tspan x="0" y="0">BE</tspan></text>
	<text class="cls-27" transform="translate(594.12 61.21)"><tspan x="0" y="0">RU</tspan></text>
	<text class="cls-4" transform="translate(609.84 61.21)">
		<tspan x="0" y="0">FSEINSTIEG</tspan>
	</text>
	<path
		class="cls-67"
		d="m726.55,41.85c-7.19,0-13.02,5.83-13.02,13.02v200.28c0,7.19,5.83,13.02,13.02,13.02h8.25c7.19,0,13.02-5.83,13.02-13.02V54.87c0-7.19-5.83-13.02-13.02-13.02h-8.25Z"
	/>
	<text class="cls-40" transform="translate(726.8 59.68)"><tspan x="0" y="0">S</tspan></text>
	<text class="cls-40" transform="translate(726.65 73.68)"><tspan x="0" y="0">Y</tspan></text>
	<text class="cls-40" transform="translate(726.33 87.68)"><tspan x="0" y="0">N</tspan></text>
	<text class="cls-40" transform="translate(726.91 101.68)"><tspan x="0" y="0">T</tspan></text>
	<text class="cls-40" transform="translate(726.33 115.68)"><tspan x="0" y="0">H</tspan></text>
	<text class="cls-40" transform="translate(727.04 129.68)"><tspan x="0" y="0">E</tspan></text>
	<text class="cls-40" transform="translate(726.91 143.68)"><tspan x="0" y="0">T</tspan></text>
	<text class="cls-40" transform="translate(728.52 157.68)"><tspan x="0" y="0">I</tspan></text>
	<text class="cls-40" transform="translate(726.8 171.68)"><tspan x="0" y="0">S</tspan></text>
	<text class="cls-40" transform="translate(728.52 185.68)"><tspan x="0" y="0">I</tspan></text>
	<text class="cls-40" transform="translate(727.04 199.68)"><tspan x="0" y="0">E</tspan></text>
	<text class="cls-40" transform="translate(726.67 213.68)"><tspan x="0" y="0">R</tspan></text>
	<text class="cls-40" transform="translate(726.49 227.68)"><tspan x="0" y="0">U</tspan></text>
	<text class="cls-40" transform="translate(726.33 241.68)"><tspan x="0" y="0">N</tspan></text>
	<text class="cls-40" transform="translate(726.46 255.68)"><tspan x="0" y="0">G</tspan></text>
	<path
		class="cls-61"
		d="m726.55,41.85c-7.19,0-13.02,5.83-13.02,13.02v200.28c0,7.19,5.83,13.02,13.02,13.02h8.25c7.19,0,13.02-5.83,13.02-13.02V54.87c0-7.19-5.83-13.02-13.02-13.02h-8.25Z"
	/>
	<line class="cls-64" x1="307.17" y1="248.44" x2="391.01" y2="248.44" />
	<text class="cls-28" transform="translate(307.17 246.52)"><tspan x="0" y="0">LÄ</tspan></text>
	<text class="cls-32" transform="translate(320.91 246.52)">
		<tspan x="0" y="0">NGSSCHNI</tspan>
	</text>
	<text class="cls-2" transform="translate(377.36 246.52)"><tspan x="0" y="0">TT</tspan></text>
	<text class="cls-15" transform="translate(391.01 246.52)">
		<tspan x="0" y="0" xml:space="preserve"></tspan>
	</text>
	<text class="cls-41" transform="translate(402.94 246.52)"><tspan x="0" y="0"></tspan></text>
	<text class="cls-57" transform="translate(405.92 245.51)">
		<tspan x="0" y="0">PROBLEMZENTRIE</tspan>
	</text>
	<text class="cls-50" transform="translate(539.93 245.51)"><tspan x="0" y="0">RT</tspan></text>
	<text class="cls-53" transform="translate(559.34 245.51)"><tspan x="0" y="0">E I</tspan></text>
	<text class="cls-55" transform="translate(581.93 245.51)"><tspan x="0" y="0">NTE</tspan></text>
	<text class="cls-54" transform="translate(611.13 245.51)"><tspan x="0" y="0">RV</tspan></text>
	<text class="cls-52" transform="translate(630.87 245.51)"><tspan x="0" y="0">IE</tspan></text>
	<text class="cls-52" transform="translate(647.4 245.51)"><tspan x="0" y="0">WS</tspan></text>
	<path
		class="cls-60"
		d="m25.1,179.29h683.27m-6.16-5.72l6.16,5.72-6.16,5.72M95.97,101.34h610.28m-6.16-5.72l6.16,5.72-6.16,5.72"
	/>
	<path class="cls-59" d="m343.77,130.47v18.48m142.44-18.48v18.48m142.44-18.48v18.48" />
	<path
		class="cls-66"
		d="m34.88,79.29c-6.63,0-12,5.37-12,12v19.31c0,6.63,5.37,12,12,12h71.1c6.63,0,12-5.37,12-12v-19.31c0-6.63-5.37-12-12-12H34.88Z"
	/>
	<path class="cls-64" d="m38.67,97.65h65.11m-67.16,15.87h67.54" />
	<text class="cls-21" transform="translate(38.67 95.72)"><tspan x="0" y="0">St</tspan></text>
	<text class="cls-33" transform="translate(49.96 95.72)"><tspan x="0" y="0">rukt</tspan></text>
	<text class="cls-14" transform="translate(71.27 95.72)"><tspan x="0" y="0">urelle</tspan></text>
	<text class="cls-41" transform="translate(101.1 95.72)"><tspan x="0" y="0"></tspan></text>
	<text class="cls-29" transform="translate(36.62 111.6)"><tspan x="0" y="0">Be</tspan></text>
	<text class="cls-11" transform="translate(50.1 111.6)"><tspan x="0" y="0">di</tspan></text>
	<text class="cls-5" transform="translate(59.73 111.6)"><tspan x="0" y="0">ngunge</tspan></text>
	<text class="cls-41" transform="translate(98.33 111.6)"><tspan x="0" y="0">n</tspan></text>
	<path
		class="cls-62"
		d="m34.88,79.29c-6.63,0-12,5.37-12,12v19.31c0,6.63,5.37,12,12,12h71.1c6.63,0,12-5.37,12-12v-19.31c0-6.63-5.37-12-12-12H34.88Z"
	/>
	<path
		class="cls-66"
		d="m36.1,157.53c-6.63,0-12,5.37-12,12v19.31c0,6.63,5.37,12,12,12h108.66c6.63,0,12-5.37,12-12v-19.31c0-6.63-5.37-12-12-12H36.1Z"
	/>
	<path class="cls-64" d="m52.78,175.89h73.65m-89.63,15.87h106.61" />
	<text class="cls-42" transform="translate(52.78 173.96)"><tspan x="0" y="0">Er</tspan></text>
	<text class="cls-43" transform="translate(63.87 173.96)"><tspan x="0" y="0">fahrun</tspan></text>
	<text class="cls-42" transform="translate(97.68 173.96)"><tspan x="0" y="0">gen</tspan></text>
	<text class="cls-41" transform="translate(119.84 173.96)"><tspan x="0" y="0">&amp;</tspan></text>
	<text class="cls-32" transform="translate(36.8 189.83)"><tspan x="0" y="0">Se</tspan></text>
	<text class="cls-14" transform="translate(49.93 189.83)"><tspan x="0" y="0">lbst</tspan></text>
	<text class="cls-7" transform="translate(70.54 189.83)"><tspan x="0" y="0">ve</tspan></text>
	<text class="cls-13" transform="translate(82.82 189.83)"><tspan x="0" y="0">rständ</tspan></text>
	<text class="cls-11" transform="translate(116.6 189.83)"><tspan x="0" y="0">ni</tspan></text>
	<text class="cls-19" transform="translate(126.12 189.83)"><tspan x="0" y="0">ss</tspan></text>
	<text class="cls-41" transform="translate(137.83 189.83)"><tspan x="0" y="0">e</tspan></text>
	<path
		class="cls-62"
		d="m36.1,157.53c-6.63,0-12,5.37-12,12v19.31c0,6.63,5.37,12,12,12h108.66c6.63,0,12-5.37,12-12v-19.31c0-6.63-5.37-12-12-12H36.1Z"
	/>
	<path
		class="cls-66"
		d="m138.68,79.29c-6.63,0-12,5.37-12,12v19.31c0,6.63,5.37,12,12,12h71.1c6.63,0,12-5.37,12-12v-19.31c0-6.63-5.37-12-12-12h-71.1Z"
	/>
	<path class="cls-64" d="m139.27,97.65h68.82m-56.9,15.87h45.97" />
	<text class="cls-16" transform="translate(139.27 95.72)"><tspan x="0" y="0">Do</tspan></text>
	<text class="cls-46" transform="translate(153.13 95.72)">
		<tspan x="0" y="0">kumenten</tspan>
	</text>
	<text class="cls-41" transform="translate(204.43 95.72)"><tspan x="0" y="0">-</tspan></text>
	<text class="cls-14" transform="translate(151.2 111.6)"><tspan x="0" y="0">anal</tspan></text>
	<text class="cls-26" transform="translate(173.17 111.6)"><tspan x="0" y="0">ys</tspan></text>
	<text class="cls-13" transform="translate(185.12 111.6)"><tspan x="0" y="0">en</tspan></text>
	<path
		class="cls-62"
		d="m138.68,79.29c-6.63,0-12,5.37-12,12v19.31c0,6.63,5.37,12,12,12h71.1c6.63,0,12-5.37,12-12v-19.31c0-6.63-5.37-12-12-12h-71.1Z"
	/>
	<path
		class="cls-67"
		d="m298.17,70.79c-6.63,0-12,5.37-12,12v35.18c0,6.63,5.37,12,12,12h91.22c6.63,0,12-5.37,12-12v-35.18c0-6.63-5.37-12-12-12h-91.22Z"
	/>
	<path class="cls-64" d="m298.35,89.14h90.82m-76.14,15.87h61.28m-51.48,15.87h40.67" />
	<text class="cls-38" transform="translate(298.35 87.22)"><tspan x="0" y="0">Ko</tspan></text>
	<text class="cls-17" transform="translate(311.82 87.22)">
		<tspan x="0" y="0">rpuserst</tspan>
	</text>
	<text class="cls-42" transform="translate(355.74 87.22)"><tspan x="0" y="0">ellung</tspan></text>
	<text class="cls-41" transform="translate(387.99 87.22)"><tspan x="0" y="0"></tspan></text>
	<text class="cls-15" transform="translate(313.03 103.09)"><tspan x="0" y="0">&amp;</tspan></text>
	<text class="cls-8" transform="translate(323.18 103.09)"><tspan x="0" y="0">(D</tspan></text>
	<text class="cls-11" transform="translate(334.94 103.09)"><tspan x="0" y="0">isku</tspan></text>
	<text class="cls-23" transform="translate(356.26 103.09)"><tspan x="0" y="0">rs</tspan></text>
	<text class="cls-20" transform="translate(366.67 103.09)"><tspan x="0" y="0">-)</tspan></text>
	<text class="cls-29" transform="translate(322.83 118.96)"><tspan x="0" y="0">An</tspan></text>
	<text class="cls-11" transform="translate(336.51 118.96)"><tspan x="0" y="0">al</tspan></text>
	<text class="cls-26" transform="translate(345.98 118.96)"><tspan x="0" y="0">ys</tspan></text>
	<text class="cls-41" transform="translate(357.93 118.96)"><tspan x="0" y="0">e</tspan></text>
	<path
		class="cls-63"
		d="m298.17,70.79c-6.63,0-12,5.37-12,12v35.18c0,6.63,5.37,12,12,12h91.22c6.63,0,12-5.37,12-12v-35.18c0-6.63-5.37-12-12-12h-91.22Z"
	/>
	<path
		class="cls-67"
		d="m440.61,70.79c-6.63,0-12,5.37-12,12v35.18c0,6.63,5.37,12,12,12h91.22c6.63,0,12-5.37,12-12v-35.18c0-6.63-5.37-12-12-12h-91.22Z"
	/>
	<path class="cls-64" d="m440.79,89.14h90.82m-76.14,15.87h61.28m-51.47,15.87h40.67" />
	<text class="cls-38" transform="translate(440.79 87.22)"><tspan x="0" y="0">Ko</tspan></text>
	<text class="cls-18" transform="translate(454.26 87.22)">
		<tspan x="0" y="0">rpuserst</tspan>
	</text>
	<text class="cls-42" transform="translate(498.18 87.22)"><tspan x="0" y="0">ellung</tspan></text>
	<text class="cls-41" transform="translate(530.43 87.22)"><tspan x="0" y="0"></tspan></text>
	<text class="cls-15" transform="translate(455.47 103.09)"><tspan x="0" y="0">&amp;</tspan></text>
	<text class="cls-8" transform="translate(465.62 103.09)"><tspan x="0" y="0">(D</tspan></text>
	<text class="cls-9" transform="translate(477.38 103.09)"><tspan x="0" y="0">isku</tspan></text>
	<text class="cls-23" transform="translate(498.7 103.09)"><tspan x="0" y="0">rs</tspan></text>
	<text class="cls-20" transform="translate(509.11 103.09)"><tspan x="0" y="0">-)</tspan></text>
	<text class="cls-30" transform="translate(465.27 118.96)"><tspan x="0" y="0">An</tspan></text>
	<text class="cls-9" transform="translate(478.95 118.96)"><tspan x="0" y="0">al</tspan></text>
	<text class="cls-24" transform="translate(488.42 118.96)"><tspan x="0" y="0">ys</tspan></text>
	<text class="cls-41" transform="translate(500.37 118.96)"><tspan x="0" y="0">e</tspan></text>
	<path
		class="cls-63"
		d="m440.61,70.79c-6.63,0-12,5.37-12,12v35.18c0,6.63,5.37,12,12,12h91.22c6.63,0,12-5.37,12-12v-35.18c0-6.63-5.37-12-12-12h-91.22Z"
	/>
	<path
		class="cls-67"
		d="m583.05,70.79c-6.63,0-12,5.37-12,12v35.18c0,6.63,5.37,12,12,12h91.22c6.63,0,12-5.37,12-12v-35.18c0-6.63-5.37-12-12-12h-91.22Z"
	/>
	<path class="cls-64" d="m583.23,89.14h90.82m-76.14,15.87h61.28m-51.48,15.87h40.67" />
	<text class="cls-38" transform="translate(583.23 87.22)"><tspan x="0" y="0">Ko</tspan></text>
	<text class="cls-18" transform="translate(596.7 87.22)"><tspan x="0" y="0">rpuserst</tspan></text>
	<text class="cls-42" transform="translate(640.62 87.22)"><tspan x="0" y="0">ellung</tspan></text>
	<text class="cls-41" transform="translate(672.87 87.22)"><tspan x="0" y="0"></tspan></text>
	<text class="cls-15" transform="translate(597.91 103.09)"><tspan x="0" y="0">&amp;</tspan></text>
	<text class="cls-8" transform="translate(608.06 103.09)"><tspan x="0" y="0">(D</tspan></text>
	<text class="cls-9" transform="translate(619.82 103.09)"><tspan x="0" y="0">isku</tspan></text>
	<text class="cls-23" transform="translate(641.14 103.09)"><tspan x="0" y="0">rs</tspan></text>
	<text class="cls-20" transform="translate(651.55 103.09)"><tspan x="0" y="0">-)</tspan></text>
	<text class="cls-30" transform="translate(607.71 118.96)"><tspan x="0" y="0">An</tspan></text>
	<text class="cls-9" transform="translate(621.39 118.96)"><tspan x="0" y="0">al</tspan></text>
	<text class="cls-24" transform="translate(630.86 118.96)"><tspan x="0" y="0">ys</tspan></text>
	<text class="cls-41" transform="translate(642.81 118.96)"><tspan x="0" y="0">e</tspan></text>
	<path
		class="cls-63"
		d="m583.05,70.79c-6.63,0-12,5.37-12,12v35.18c0,6.63,5.37,12,12,12h91.22c6.63,0,12-5.37,12-12v-35.18c0-6.63-5.37-12-12-12h-91.22Z"
	/>
	<path
		class="cls-66"
		d="m177.27,157.38c-6.63,0-12,5.37-12,12v19.31c0,6.63,5.37,12,12,12h88.39c6.63,0,12-5.37,12-12v-19.31c0-6.63-5.37-12-12-12h-88.39Z"
	/>
	<path class="cls-64" d="m192.39,175.74h56.77m-71.57,15.87h87.37" />
	<text class="cls-29" transform="translate(192.39 173.82)"><tspan x="0" y="0">Qu</tspan></text>
	<text class="cls-41" transform="translate(206.64 173.82)"><tspan x="0" y="0">a</tspan></text>
	<text class="cls-11" transform="translate(212.68 173.82)">
		<tspan x="0" y="0">litativ</tspan>
	</text>
	<text class="cls-41" transform="translate(243.59 173.82)"><tspan x="0" y="0">e</tspan></text>
	<text class="cls-37" transform="translate(177.59 189.69)"><tspan x="0" y="0">Inte</tspan></text>
	<text class="cls-3" transform="translate(198.21 189.69)"><tspan x="0" y="0">rv</tspan></text>
	<text class="cls-10" transform="translate(208.98 189.69)">
		<tspan x="0" y="0">iewstudien</tspan>
	</text>
	<path
		class="cls-62"
		d="m177.27,157.38c-6.63,0-12,5.37-12,12v19.31c0,6.63,5.37,12,12,12h88.39c6.63,0,12-5.37,12-12v-19.31c0-6.63-5.37-12-12-12h-88.39Z"
	/>
	<path
		class="cls-67"
		d="m306.67,149.45c-6.63,0-12,5.37-12,12v35.18c0,6.63,5.37,12,12,12h74.21c6.63,0,12-5.37,12-12v-35.18c0-6.63-5.37-12-12-12h-74.21Z"
	/>
	<path class="cls-64" d="m320.31,167.8h45.73m-58.85,15.87h75.02m-66.21,15.87h54.34" />
	<text class="cls-35" transform="translate(320.31 165.88)"><tspan x="0" y="0">(ber</tspan></text>
	<text class="cls-14" transform="translate(341.94 165.88)"><tspan x="0" y="0">uf</tspan></text>
	<text class="cls-39" transform="translate(352.42 165.88)"><tspan x="0" y="0">s-</tspan></text>
	<text class="cls-41" transform="translate(362.38 165.88)"><tspan x="0" y="0">)</tspan></text>
	<text class="cls-42" transform="translate(307.18 181.75)">
		<tspan x="0" y="0">biographisch</tspan>
	</text>
	<text class="cls-41" transform="translate(374.59 181.75)"><tspan x="0" y="0">e</tspan></text>
	<text class="cls-37" transform="translate(316 197.63)"><tspan x="0" y="0">Inte</tspan></text>
	<text class="cls-3" transform="translate(336.62 197.63)"><tspan x="0" y="0">rv</tspan></text>
	<text class="cls-37" transform="translate(347.39 197.63)"><tspan x="0" y="0">iews</tspan></text>
	<path
		class="cls-63"
		d="m306.67,149.45c-6.63,0-12,5.37-12,12v35.18c0,6.63,5.37,12,12,12h74.21c6.63,0,12-5.37,12-12v-35.18c0-6.63-5.37-12-12-12h-74.21Z"
	/>
	<path
		class="cls-67"
		d="m447.69,149.45c-6.63,0-12,5.37-12,12v35.18c0,6.63,5.37,12,12,12h77.05c6.63,0,12-5.37,12-12v-35.18c0-6.63-5.37-12-12-12h-77.05Z"
	/>
	<path class="cls-64" d="m462.83,167.8h45.73m-58.85,15.87h75.78m-66.96,15.87h54.34" />
	<text class="cls-34" transform="translate(462.83 165.88)"><tspan x="0" y="0">(ber</tspan></text>
	<text class="cls-14" transform="translate(484.46 165.88)"><tspan x="0" y="0">uf</tspan></text>
	<text class="cls-39" transform="translate(494.94 165.88)"><tspan x="0" y="0">s-</tspan></text>
	<text class="cls-41" transform="translate(504.9 165.88)"><tspan x="0" y="0">)</tspan></text>
	<text class="cls-42" transform="translate(449.7 181.75)">
		<tspan x="0" y="0">biographisch</tspan>
	</text>
	<text class="cls-41" transform="translate(517.11 181.75)"><tspan x="0" y="0">e</tspan></text>
	<text class="cls-44" transform="translate(458.52 197.63)"><tspan x="0" y="0">Inte</tspan></text>
	<text class="cls-1" transform="translate(479.14 197.63)"><tspan x="0" y="0">rv</tspan></text>
	<text class="cls-36" transform="translate(489.92 197.63)"><tspan x="0" y="0">iews</tspan></text>
	<path
		class="cls-63"
		d="m447.69,149.45c-6.63,0-12,5.37-12,12v35.18c0,6.63,5.37,12,12,12h77.05c6.63,0,12-5.37,12-12v-35.18c0-6.63-5.37-12-12-12h-77.05Z"
	/>
	<path
		class="cls-67"
		d="m591.55,149.45c-6.63,0-12,5.37-12,12v35.18c0,6.63,5.37,12,12,12h74.21c6.63,0,12-5.37,12-12v-35.18c0-6.63-5.37-12-12-12h-74.21Z"
	/>
	<path class="cls-64" d="m605.19,167.8h45.73m-58.85,15.87h75.03m-66.21,15.87h54.34" />
	<text class="cls-34" transform="translate(605.19 165.88)"><tspan x="0" y="0">(ber</tspan></text>
	<text class="cls-14" transform="translate(626.82 165.88)"><tspan x="0" y="0">uf</tspan></text>
	<text class="cls-39" transform="translate(637.3 165.88)"><tspan x="0" y="0">s-</tspan></text>
	<text class="cls-41" transform="translate(647.26 165.88)"><tspan x="0" y="0">)</tspan></text>
	<text class="cls-42" transform="translate(592.06 181.75)">
		<tspan x="0" y="0">biographisch</tspan>
	</text>
	<text class="cls-41" transform="translate(659.47 181.75)"><tspan x="0" y="0">e</tspan></text>
	<text class="cls-44" transform="translate(600.88 197.63)"><tspan x="0" y="0">Inte</tspan></text>
	<text class="cls-1" transform="translate(621.5 197.63)"><tspan x="0" y="0">rv</tspan></text>
	<text class="cls-36" transform="translate(632.27 197.63)"><tspan x="0" y="0">iews</tspan></text>
	<path
		class="cls-63"
		d="m591.55,149.45c-6.63,0-12,5.37-12,12v35.18c0,6.63,5.37,12,12,12h74.21c6.63,0,12-5.37,12-12v-35.18c0-6.63-5.37-12-12-12h-74.21Z"
	/>
	<polygon class="cls-62" points=".5 .5 .5 292.18 777.4 292.18 777.4 .5 .5 .5 .5 .5" />
</svg>
