<?xml version="1.0" encoding="UTF-8" standalone="no"?>
<svg
	id="Ebene_1"
	viewBox="0 0 647.35 429.24"
	version="1.1"
	sodipodi:docname="SVG Gral Elemente_kuvert.svg"
	inkscape:version="1.2.2 (1:1.2.2+202212051552+b0a8486541)"
	xmlns:inkscape="http://www.inkscape.org/namespaces/inkscape"
	xmlns:sodipodi="http://sodipodi.sourceforge.net/DTD/sodipodi-0.dtd"
	xmlns="http://www.w3.org/2000/svg"
	xmlns:svg="http://www.w3.org/2000/svg"
>
	<sodipodi:namedview
		id="namedview23"
		pagecolor="#ffffff"
		bordercolor="#000000"
		borderopacity="0.25"
		inkscape:showpageshadow="2"
		inkscape:pageopacity="0.0"
		inkscape:pagecheckerboard="0"
		inkscape:deskcolor="#d1d1d1"
		showgrid="false"
		inkscape:zoom="1.9266611"
		inkscape:cx="324.13588"
		inkscape:cy="187.88981"
		inkscape:window-width="1920"
		inkscape:window-height="1007"
		inkscape:window-x="0"
		inkscape:window-y="0"
		inkscape:window-maximized="1"
		inkscape:current-layer="Ebene_1"
	/>
	<defs id="defs4">
		<style id="style2">
			.cls-1 {
				fill: #006c8e;
			}
			.cls-2 {
				fill: #fff;
			}
			.cls-3 {
				stroke-width: 0.26px;
			}
			.cls-3,
			.cls-4,
			.cls-5 {
				fill: none;
			}
			.cls-3,
			.cls-5 {
				stroke: #006c8e;
			}
			.cls-4 {
				stroke: #e94e24;
				stroke-width: 0.53px;
			}
			.cls-5 {
				stroke-width: 1.06px;
			}
		</style>
	</defs>
	<path
		class="cls-5"
		d="m.53.76v427.94h646.29V.76H.53Zm-.26-.26l321.4,106.44L647.09.5"
		id="path8"
	/>
	<path
		class="cls-2"
		d="m539.04,385.52l.62-1.67h3l.62,1.67h1.35l-2.8-7.39h-1.27l-2.8,7.39h1.27Zm2.13-5.81l1.08,3.04h-2.18l1.1-3.04h0Zm8.42,5.81c.61,0,1.1-.09,1.48-.26.38-.18.66-.42.83-.74.18-.32.26-.68.26-1.09,0-.48-.13-.87-.39-1.17-.26-.3-.6-.5-1.04-.6.34-.12.62-.32.81-.59.2-.27.3-.6.3-.98,0-.6-.2-1.08-.59-1.44s-1.01-.54-1.84-.54h-2.96v7.39h3.12Zm-1.86-3.3h1.71c.55,0,.93.1,1.14.29.21.19.32.47.32.83s-.1.64-.31.81c-.21.18-.59.26-1.14.26h-1.72v-2.2h0Zm0-3h1.53c.5,0,.84.08,1.03.25.19.17.29.41.29.72s-.1.56-.29.74c-.19.18-.54.27-1.03.27h-1.53v-1.99h0Zm10.74,6.14c.43-.18.75-.43.97-.76.21-.32.32-.68.32-1.09,0-.34-.05-.64-.16-.89-.11-.25-.27-.46-.49-.63-.22-.17-.49-.32-.81-.44-.32-.12-.7-.23-1.14-.32-.58-.12-1.02-.26-1.3-.43-.28-.17-.42-.42-.42-.76,0-.25.11-.46.33-.63.22-.18.59-.26,1.09-.26.44,0,.77.08,1,.25.23.17.37.38.43.65h1.27c-.04-.39-.16-.74-.36-1.05-.21-.3-.5-.54-.89-.71-.38-.17-.86-.26-1.44-.26s-1.09.09-1.48.27c-.4.18-.7.43-.9.73-.2.3-.31.64-.31,1.01,0,.45.09.82.27,1.11.18.29.45.52.8.69.35.17.78.31,1.29.43.45.09.82.19,1.11.3s.51.24.65.39c.14.15.21.34.21.57,0,.28-.12.52-.38.71-.25.19-.67.29-1.26.29s-.97-.1-1.2-.29c-.23-.19-.38-.43-.43-.72h-1.27c.04.41.17.77.39,1.09.21.32.53.57.95.76.41.18.94.27,1.57.27s1.19-.09,1.61-.27h0Zm8.39.16v-1.1h-3.7v-2.15h3.38v-1.1h-3.38v-1.94h3.7v-1.1h-4.96v7.39h4.96Zm3.47,0v-5.28l3.63,5.28h1.22v-7.39h-1.27v5.28l-3.63-5.28h-1.23v7.39h1.27Zm9.66,0c.76,0,1.41-.14,1.96-.42.54-.28.96-.69,1.25-1.23.29-.54.43-1.21.43-2v-.21c0-.78-.14-1.43-.42-1.96-.28-.52-.68-.92-1.21-1.18-.53-.26-1.16-.4-1.91-.4h-2.38v7.39h2.27Zm-1-6.29h1c.44,0,.83.08,1.18.25.35.17.62.43.83.79.2.36.31.83.31,1.4v.21c0,.62-.1,1.12-.3,1.49-.2.37-.48.64-.85.81-.36.17-.79.25-1.27.25h-.9v-5.2h0Zm11.79,6.29v-1.1h-3.7v-2.15h3.38v-1.1h-3.38v-1.94h3.7v-1.1h-4.96v7.39h4.96Zm3.47,0v-5.28l3.63,5.28h1.23v-7.39h-1.27v5.28l-3.63-5.28h-1.22v7.39h1.27Z"
		id="path14"
	/>
</svg>
