<svg xmlns="http://www.w3.org/2000/svg" id="Ebene_1" data-name="Ebene 1" viewBox="0 0 138.79 91.27">
	<defs>
		<style>
			.cls-2 {
				stroke-width: 2px;
			}
			.cls-2,
			.cls-4 {
				fill: none;
				stroke: #006c8e;
			}
		</style>
	</defs>
	<path d="M137.79 90.27V1H1.09v89.27h136.7z" class="cls-2" />
	<path d="M137.79 90.27 92.22 45.48" class="cls-4" />
	<path d="M137.79.9 68.4 69.07.71.9" class="cls-2" />
	<path d="M45.12 45.55.71 90.27" class="cls-4" />
	<path
		fill="#006c8e"
		d="M51.63 26.36v-7.84l2.96 5.52h1.28l2.96-5.52v7.84h1.92v-11.2h-1.92l-3.57 6.64-3.57-6.64h-1.98v11.2h1.92Zm13.7 0 .94-2.53h4.54l.94 2.53h2.05l-4.24-11.2h-1.92l-4.24 11.2h1.92Zm3.23-8.8 1.63 4.61h-3.3l1.66-4.61Zm9.9 8.8v-11.2h-1.92v11.2h1.92Zm11.15 0V24.7h-5.44v-9.54h-1.92v11.2h7.36Z"
	/>
	<path fill="none" stroke="#e94e24" stroke-width="2.5" d="M91.24 31.78H46.12" />
</svg>
