<svg xmlns="http://www.w3.org/2000/svg" viewBox="0 0 79.89 76.35">
	<path
		fill="none"
		stroke="#006c8e"
		stroke-width="2"
		d="M38.17 75.35c20.53 0 37.17-16.64 37.17-37.17S58.7 1 38.17 1 1 17.64 1 38.17s16.64 37.17 37.17 37.17Z"
	/>
	<path
		fill="none"
		stroke="#006c8e"
		d="M42.12 75.45c20.59 0 37.27-16.69 37.27-37.27S62.71.9 42.12.9"
	/>
	<path
		fill="#006c8e"
		d="m24.03 44.25 2.42-8.32 2.54 8.32h1.92l2.96-11.2h-1.86l-2.11 8.32-2.59-8.32h-1.6l-2.45 8.32-2.13-8.32h-1.98l2.96 11.2h1.92Zm20.1 0v-1.66h-5.6v-3.26h5.12v-1.66h-5.12v-2.94h5.6v-1.66h-7.52v11.2h7.52Zm7.93 0c.92 0 1.66-.13 2.24-.4.58-.27 1-.64 1.26-1.12.27-.48.4-1.03.4-1.65 0-.73-.19-1.31-.58-1.77-.39-.45-.91-.75-1.58-.9.52-.18.93-.48 1.23-.89.3-.41.45-.9.45-1.48 0-.91-.3-1.63-.89-2.18-.59-.54-1.52-.82-2.79-.82h-4.48v11.2h4.74Zm-2.82-4.99h2.59c.83 0 1.41.15 1.73.44.32.29.48.71.48 1.26s-.16.97-.47 1.23c-.31.27-.89.4-1.72.4h-2.61v-3.33Zm0-4.54h2.32c.76 0 1.28.13 1.57.38.29.25.43.62.43 1.1s-.15.84-.44 1.12c-.29.28-.81.42-1.56.42h-2.32v-3.01Z"
	/>
</svg>
