<svg xmlns="http://www.w3.org/2000/svg" viewBox="0 0 29.55 29.55">
	<path
		fill="none"
		stroke="#e94e24"
		stroke-width="1.5"
		d="M8.13.75C4.05.75.75 4.06.75 8.13v13.29c0 4.08 3.3 7.38 7.38 7.38h13.29c4.08 0 7.38-3.31 7.38-7.38V8.13c0-4.08-3.31-7.38-7.38-7.38H8.13Z"
	/>
	<path
		fill="none"
		stroke="#006c8e"
		stroke-width="1.8"
		d="M14.78 22.9c4.48 0 8.12-3.64 8.12-8.12s-3.64-8.12-8.12-8.12-8.12 3.64-8.12 8.12 3.64 8.12 8.12 8.12Z"
	/>
	<path
		fill="none"
		stroke="#e94e24"
		d="M22.87 6.5c.48 0 .86-.39.86-.87s-.39-.86-.86-.86-.86.39-.86.86.39.87.86.87Z"
	/>
</svg>
