<?xml version="1.0" encoding="UTF-8"?><svg
	id="Ebene_1"
	xmlns="http://www.w3.org/2000/svg"
	viewBox="0 0 29.55 29.55"
>
	<defs>
		<style>
			.cls-1 {
				stroke: #006c8e;
				stroke-width: 1.8px;
			}
			.cls-1,
			.cls-2,
			.cls-3 {
				fill: none;
			}
			.cls-2,
			.cls-3 {
				stroke: #e94e24;
			}
			.cls-3 {
				stroke-width: 1.5px;
			}
		</style>
	</defs>
	<path
		class="cls-3"
		d="m8.13.75C4.05.75.75,4.06.75,8.13v13.29c0,4.08,3.3,7.38,7.38,7.38h13.29c4.08,0,7.38-3.31,7.38-7.38v-13.29c0-4.08-3.31-7.38-7.38-7.38h-13.29Z"
	/>
	<path
		class="cls-1"
		d="m14.78,22.9c4.48,0,8.12-3.64,8.12-8.12s-3.64-8.12-8.12-8.12-8.12,3.64-8.12,8.12,3.64,8.12,8.12,8.12h0Z"
	/>
	<path
		class="cls-2"
		d="m22.87,6.5c.48,0,.86-.39.86-.87s-.39-.86-.86-.86-.86.39-.86.86.39.87.86.87h0Z"
	/>
</svg>
