<svg xmlns="http://www.w3.org/2000/svg" id="Ebene_1" viewBox="0 0 138.49 90.58">
	<defs>
		<style>
			.cls-3 {
				fill: none;
				stroke: #006c8e;
			}
		</style>
	</defs>
	<path d="M137.79 90.08V.82H1.09v89.27h136.7Zm0 0L92.23 45.3" class="cls-3" />
	<path fill="none" stroke="#006c8e" stroke-width="2" d="M137.79.71 68.4 68.89.71.71" />
	<path d="M45.12 45.37.71 90.08" class="cls-3" />
	<path
		fill="#006c8e"
		d="M51.63 26.18v-7.84l2.96 5.52h1.28l2.96-5.52v7.84h1.92v-11.2h-1.92l-3.57 6.64-3.57-6.64h-1.98v11.2h1.92Zm13.7 0 .94-2.53h4.54l.94 2.53h2.05l-4.24-11.2h-1.92l-4.24 11.2h1.92Zm3.23-8.8 1.63 4.61h-3.3l1.66-4.61Zm9.9 8.8v-11.2h-1.92v11.2h1.92Zm11.15 0v-1.66h-5.44v-9.54h-1.92v11.2h7.36Z"
	/>
</svg>
