<svg xmlns="http://www.w3.org/2000/svg" data-name="Ebene 1" viewBox="0 0 72.78 94.33">
	<path fill="none" stroke="#006c8e" d="M4.29 4.56H.5v89.27h67.74v-4.7" />
	<path fill="none" stroke="#e94e24" stroke-width="2.5" d="M48.91 57.3H26.92" />
	<path
		fill="#006c8e"
		d="M32.737 42.707q-1.828 0-2.843 1.18-1.016 1.171-1.016 3.218 0 2.024 1.055 3.258 1.062 1.227 2.867 1.227 2.313 0 3.477-2.29l1.218.61q-.68 1.422-1.914 2.164-1.226.742-2.851.742-1.664 0-2.883-.687-1.211-.696-1.852-1.977-.633-1.289-.633-3.047 0-2.633 1.422-4.125t3.938-1.492q1.758 0 2.937.688 1.18.687 1.735 2.039l-1.414.468q-.383-.96-1.235-1.468-.843-.508-2.008-.508Zm12.277 9.953h-1.547l-4.492-11.008h1.57l3.047 7.75.656 1.945.657-1.945 3.03-7.75h1.571z"
		aria-label="CV"
		font-family='GolosText-Medium,"Golos Text"'
		font-size="16"
		font-weight="500"
		letter-spacing=".05em"
		style="font-variation-settings: 'wght' 500"
	/>
	<path
		fill="none"
		stroke="#006c8e"
		stroke-width="2"
		d="M51.77 1.02H4.04v89.27h67.74V22.52L51.77 1.02Zm21.02 21.8H49.98l.37-22.8"
	/>
</svg>
