<?xml version="1.0" encoding="UTF-8"?><svg
	xmlns="http://www.w3.org/2000/svg"
	xmlns:xlink="http://www.w3.org/1999/xlink"
	viewBox="0 0 595.28 595.28"
>
	<defs>
		<style>
			.cls-1,
			.cls-2 {
				fill: none;
			}
			.cls-3 {
				clip-path: url(#clippath);
			}
			.cls-4 {
				fill: #006b8e;
			}
			.cls-5 {
				fill: #e94c21;
			}
			.cls-6 {
				fill: #fff;
			}
			.cls-2 {
				stroke: #e94c21;
				stroke-width: 2px;
			}
			.cls-7 {
				mix-blend-mode: multiply;
			}
			.cls-8 {
				clip-path: url(#clippath-1);
			}
			.cls-9 {
				clip-path: url(#clippath-4);
			}
			.cls-10 {
				clip-path: url(#clippath-3);
			}
			.cls-11 {
				clip-path: url(#clippath-2);
			}
			.cls-12 {
				opacity: 0.6;
			}
			.cls-13 {
				isolation: isolate;
			}
		</style>
		<clipPath id="clippath"><rect class="cls-1" width="595.28" height="595.28" /></clipPath>
		<clipPath id="clippath-1"><rect class="cls-1" width="595.28" height="595.28" /></clipPath>
		<clipPath id="clippath-2"><rect class="cls-1" width="595.28" height="595.28" /></clipPath>
		<clipPath id="clippath-3">
			<rect class="cls-1" x="105.32" y="145.63" width="384.63" height="325.28" />
		</clipPath>
		<clipPath id="clippath-4">
			<rect class="cls-1" x="174.73" y="155.88" width="230.93" height="260.45" />
		</clipPath>
	</defs>
	<g class="cls-13">
		<g id="Ebene_1">
			<g class="cls-3">
				<g class="cls-8">
					<path
						class="cls-6"
						d="m297.64,486.5c107.95,0,195.47-87.51,195.47-195.47s-87.51-195.46-195.47-195.46-195.47,87.51-195.47,195.46,87.51,195.47,195.47,195.47"
					/>
				</g>
				<path
					class="cls-5"
					d="m149.25,192.81c1.43-2.08,3.8-2.77,5.6-2.26l-.88,1.27c-1.28-.19-2.73.42-3.64,1.74-1.34,1.95-.83,4.44,1.11,5.77,1.94,1.33,4.44.93,5.79-1.03,1.24-1.8.84-3.94-.78-5.29l-2.25,3.27-1.08-.74,3.06-4.45c3.37,1.95,3.9,5.4,2.14,7.95-1.77,2.57-5.11,3.19-7.66,1.43-2.56-1.76-3.17-5.1-1.41-7.67Z"
				/>
				<path
					class="cls-5"
					d="m159.17,179.43l4.08-4.68.99.87-3.17,3.63,2.43,2.12,2.57-2.95,1,.87-2.57,2.95,2.61,2.28,3.16-3.63,1,.87-4.08,4.68-8.03-7Z"
				/>
				<path
					class="cls-5"
					d="m170.68,166.55l1.02-.95,6.38,6.81,3.76-3.52.9.96-4.77,4.47-7.28-7.77Z"
				/>
				<path class="cls-5" d="m183.3,155.07l1.1-.86,6.57,8.38-1.1.86-6.57-8.38Z" />
				<path
					class="cls-5"
					d="m206.06,151.65l-9.92-3.52,4.45,7-1.18.75-5.72-8.98,1.03-.65,9.92,3.52-4.45-7,1.16-.74,5.72,8.98-1.01.64Z"
				/>
				<path
					class="cls-5"
					d="m216,133.45c2.27-1.08,4.68-.5,5.98.83l-1.39.67c-1.01-.8-2.57-1-4.02-.31-2.14,1.02-2.93,3.43-1.92,5.55,1.01,2.13,3.39,3.02,5.53,2,1.98-.94,2.69-3,1.96-4.97l-3.59,1.71-.56-1.18,4.87-2.33c1.94,3.38.68,6.62-2.12,7.96-2.82,1.34-6.02.21-7.35-2.59-1.34-2.8-.21-6,2.61-7.35Z"
				/>
				<path
					class="cls-5"
					d="m231.19,126.77l5.86-2.05.44,1.25-4.54,1.59,1.07,3.04,3.69-1.29.44,1.25-3.7,1.29,1.15,3.27,4.54-1.59.44,1.25-5.86,2.05-3.52-10.05Z"
				/>
				<path
					class="cls-5"
					d="m257.7,129.74l-8.2-6.6,1.89,8.08-1.36.32-2.42-10.37,1.18-.28,8.2,6.6-1.89-8.08,1.34-.31,2.42,10.37-1.17.27Z"
				/>
				<path
					class="cls-5"
					d="m269.82,124.37c.26,1.16,1.49,1.56,2.49,1.43,1.1-.14,1.92-.84,1.8-1.82-.1-.83-.7-1.35-1.72-1.59l-1.53-.36c-1.71-.38-2.61-1.19-2.81-2.68-.21-1.73,1.03-2.94,2.88-3.17,2.14-.26,3.38,1.08,3.69,2.45l-1.37.17c-.4-1.07-1.32-1.42-2.19-1.32-1.01.12-1.73.77-1.63,1.65.11.89.66,1.28,1.73,1.52l1.42.32c1.68.38,2.72,1.19,2.91,2.77.22,1.79-1.04,3.09-3.01,3.33-2.22.27-3.79-.95-4.05-2.56l1.38-.17Z"
				/>
				<path
					class="cls-5"
					d="m285.77,114.75l3.49-.05c1.98-.03,3.2,1.27,3.22,2.77.02,1.05-.44,1.76-1.11,2.19,1.04.36,1.86,1.1,1.88,2.52.03,1.77-1.36,3.13-3.52,3.16l-3.81.06-.16-10.65Zm3.56,4.52c1.14-.02,1.8-.73,1.79-1.68-.01-.9-.7-1.65-1.84-1.64l-2.1.03.05,3.31,2.1-.03Zm.45,4.81c1.42-.02,2.13-.78,2.12-1.83-.02-1.03-.75-1.8-2.16-1.78l-2.49.04.05,3.61,2.48-.04Z"
				/>
				<path
					class="cls-5"
					d="m304.3,114.68l6.19.51-.11,1.32-4.8-.39-.26,3.21,3.9.32-.11,1.32-3.9-.32-.28,3.45,4.8.39-.11,1.32-6.19-.51.87-10.61Z"
				/>
				<path
					class="cls-5"
					d="m321.6,116.23l3,.58c3.21.62,5.13,3.31,4.56,6.3-.58,2.99-3.37,4.77-6.58,4.15l-3-.58,2.02-10.46Zm1.23,9.75c2.52.49,4.51-.87,4.95-3.14.44-2.27-.9-4.27-3.42-4.76l-1.63-.32-1.53,7.89,1.63.32Z"
				/>
				<path class="cls-5" d="m340.95,120.28l1.34.38-2.91,10.24-1.34-.38,2.91-10.24Z" />
				<path
					class="cls-5"
					d="m357.08,136.74l-2.98-10.09-3.05,7.71-1.3-.51,3.91-9.91,1.13.45,2.98,10.1,3.05-7.71,1.28.51-3.91,9.91-1.12-.44Z"
				/>
				<path
					class="cls-5"
					d="m377.69,134.09c2.21,1.21,3.14,3.5,2.82,5.34l-1.35-.74c.05-1.29-.69-2.67-2.1-3.44-2.08-1.14-4.5-.38-5.63,1.69-1.13,2.07-.47,4.51,1.61,5.65,1.92,1.05,4,.43,5.18-1.32l-3.49-1.91.63-1.14,4.74,2.59c-1.6,3.55-4.97,4.43-7.7,2.93-2.74-1.5-3.69-4.76-2.2-7.48,1.49-2.72,4.75-3.67,7.49-2.18Z"
				/>
				<path
					class="cls-5"
					d="m389.18,153.55c-2.01-1.42-2.45-3.76-.92-5.93l3.75-5.32,1.14.8-3.77,5.35c-1.1,1.56-.8,3.07.56,4.03,1.36.96,2.88.73,3.98-.83l3.77-5.35,1.14.8-3.75,5.32c-1.53,2.17-3.89,2.55-5.9,1.13Z"
				/>
				<path
					class="cls-5"
					d="m407.3,167.25l.66-10.5-5.5,6.2-1.04-.93,7.07-7.97.91.81-.66,10.51,5.51-6.21,1.03.92-7.07,7.97-.9-.8Z"
				/>
				<path
					class="cls-5"
					d="m427.58,171.79c1.66,1.89,1.76,4.36.83,5.98l-1.02-1.16c.49-1.19.26-2.75-.8-3.95-1.57-1.78-4.1-1.89-5.87-.33-1.77,1.56-1.98,4.08-.42,5.86,1.45,1.64,3.62,1.77,5.32.53l-2.63-2.98.98-.86,3.57,4.05c-2.72,2.79-6.18,2.46-8.23.13-2.06-2.34-1.84-5.73.49-7.78,2.33-2.05,5.72-1.83,7.78.51Z"
				/>
				<path
					class="cls-5"
					d="m438.24,184.52l3.57,5.08-1.08.76-2.77-3.94-2.64,1.85,2.25,3.21-1.08.76-2.25-3.21-2.84,1.99,2.77,3.94-1.08.76-3.57-5.08,8.72-6.12Z"
				/>
				<path
					class="cls-5"
					d="m442.68,210.78l4.02-9.73-7.22,4.09-.69-1.21,9.27-5.25.6,1.06-4.02,9.73,7.22-4.09.68,1.2-9.27,5.25-.59-1.04Z"
				/>
				<path
					class="cls-5"
					d="m463.13,228.74l1.16,3.44c.63,1.86-.11,3.39-1.77,3.95-1.48.5-2.79-.11-3.54-1.58l-3.3,5.43-.56-1.66,3.29-5.42-.33-.98-4.59,1.54-.44-1.32,10.09-3.39Zm-3.22,4.74c.39,1.15,1.15,1.67,2.16,1.33,1.02-.34,1.33-1.22.94-2.38l-.66-1.96-3.1,1.04.66,1.96Z"
				/>
				<path
					class="cls-5"
					d="m469.87,250.58l.25,1.13-9.38,6.9-.31-1.42,2.74-2-1.07-4.85-3.33-.66-.31-1.41,11.41,2.31Zm-5.6,3.8l3.88-2.83-4.71-.94.83,3.78Z"
				/>
				<path
					class="cls-5"
					d="m465.45,268.2c-1.17.25-1.58,1.47-1.47,2.47.12,1.1.82,1.93,1.8,1.82.83-.09,1.36-.68,1.61-1.7l.38-1.52c.4-1.7,1.23-2.59,2.71-2.77,1.73-.19,2.92,1.07,3.13,2.92.23,2.15-1.12,3.37-2.5,3.65l-.15-1.37c1.07-.39,1.44-1.3,1.35-2.17-.11-1.01-.75-1.74-1.63-1.65-.89.1-1.29.64-1.55,1.71l-.34,1.41c-.41,1.67-1.23,2.7-2.81,2.87-1.79.2-3.08-1.08-3.29-3.05-.24-2.22,1-3.78,2.61-4.01l.15,1.39Z"
				/>
				<path
					class="cls-5"
					d="m467.06,284.95c-1.18.13-1.71,1.31-1.7,2.32.01,1.11.62,2,1.62,1.99.84-.01,1.42-.54,1.77-1.54l.52-1.48c.56-1.66,1.47-2.46,2.97-2.5,1.74-.02,2.81,1.34,2.83,3.2.03,2.16-1.44,3.24-2.84,3.4l-.02-1.38c1.11-.28,1.56-1.16,1.55-2.03-.01-1.02-.58-1.81-1.46-1.8-.9.01-1.34.51-1.71,1.55l-.48,1.37c-.56,1.63-1.48,2.57-3.07,2.59-1.8.02-2.96-1.37-2.98-3.35-.03-2.23,1.36-3.66,2.98-3.74l.02,1.4Z"
				/>
				<path class="cls-5" d="m474.76,301.64l-.1,1.39-10.62-.78.1-1.39,10.62.78Z" />
				<path
					class="cls-5"
					d="m465.91,314.23c-1.19-.08-1.92.98-2.09,1.97-.19,1.09.25,2.08,1.22,2.25.83.14,1.49-.27,2.02-1.19l.78-1.36c.86-1.53,1.9-2.15,3.38-1.91,1.71.3,2.51,1.84,2.19,3.67-.37,2.13-2.01,2.92-3.41,2.82l.24-1.36c1.14-.08,1.75-.85,1.89-1.71.17-1-.24-1.88-1.11-2.03-.89-.15-1.42.26-1.96,1.21l-.72,1.26c-.85,1.5-1.93,2.25-3.49,1.98-1.77-.31-2.66-1.89-2.32-3.84.38-2.2,2.01-3.35,3.62-3.13l-.24,1.38Z"
				/>
				<path
					class="cls-5"
					d="m467.99,333.06l-7.95-2.32.39-1.34,10.22,2.99-.36,1.22-6.21,2.31,3.99,5.29-.35,1.21-10.22-2.99.39-1.32,7.95,2.32-3.88-5.13,6.03-2.24Z"
				/>
				<path
					class="cls-5"
					d="m452.51,353.43c.98-2.25,3.19-3.16,5.62-2.1l5.97,2.6-.56,1.28-6-2.61c-1.75-.76-3.17-.17-3.83,1.36-.67,1.53-.13,2.97,1.61,3.73l6,2.61-.56,1.28-5.97-2.6c-2.43-1.06-3.28-3.29-2.29-5.55Z"
				/>
				<path
					class="cls-5"
					d="m448.75,369.04c-1.09-.48-2.14.28-2.63,1.15-.54.97-.46,2.05.4,2.53.73.41,1.5.24,2.3-.44l1.19-1.01c1.32-1.15,2.51-1.39,3.82-.67,1.51.85,1.75,2.57.84,4.19-1.06,1.88-2.88,2.08-4.16,1.51l.68-1.2c1.1.31,1.93-.22,2.36-.98.5-.89.41-1.85-.36-2.29-.79-.44-1.42-.23-2.25.49l-1.1.95c-1.3,1.12-2.57,1.48-3.96.7-1.57-.88-1.87-2.67-.9-4.4,1.1-1.95,3.02-2.48,4.46-1.74l-.69,1.22Z"
				/>
				<path
					class="cls-5"
					d="m440.3,383.62c-1.04-.59-2.15.06-2.73.88-.64.91-.67,1.99.14,2.56.69.49,1.47.39,2.33-.21l1.29-.89c1.43-1.01,2.64-1.13,3.87-.28,1.42,1,1.48,2.74.41,4.25-1.25,1.76-3.07,1.78-4.29,1.08l.8-1.13c1.06.42,1.94-.02,2.45-.73.59-.83.6-1.8-.13-2.31-.73-.52-1.39-.38-2.29.25l-1.19.83c-1.41.98-2.71,1.21-4.01.29-1.47-1.04-1.59-2.85-.44-4.46,1.29-1.82,3.25-2.16,4.61-1.28l-.8,1.14Z"
				/>
				<path
					class="cls-5"
					d="m436.76,401.88l-4.08,4.68-.99-.87,3.17-3.63-2.43-2.12-2.57,2.95-.99-.87,2.57-2.95-2.61-2.28-3.17,3.63-.99-.87,4.08-4.68,8.02,7Z"
				/>
				<path
					class="cls-5"
					d="m412.3,412.44l10.4,1.63-5.67-6.05,1.02-.95,7.28,7.77-.89.83-10.4-1.63,5.67,6.05-1.01.94-7.28-7.77.88-.82Z"
				/>
				<path
					class="cls-5"
					d="m404.43,423.1c-.8-.88-2.07-.61-2.87-.01-.89.66-1.25,1.68-.66,2.48.5.67,1.27.83,2.28.53l1.5-.45c1.67-.52,2.86-.26,3.76.94,1.04,1.39.56,3.06-.93,4.17-1.73,1.29-3.47.74-4.42-.3l1.11-.83c.88.73,1.86.58,2.55.06.82-.61,1.12-1.53.6-2.24-.54-.72-1.21-.79-2.26-.47l-1.39.42c-1.65.5-2.95.31-3.9-.97-1.08-1.44-.63-3.2.96-4.38,1.79-1.34,3.77-1.05,4.78.21l-1.12.83Z"
				/>
				<path class="cls-5" d="m395.34,439.23l-1.19.72-5.5-9.12,1.19-.72,5.5,9.12Z" />
				<path
					class="cls-5"
					d="m384.13,445.98l-3.14,1.54c-1.78.87-3.44.22-4.1-1.13-.46-.94-.36-1.78.06-2.46-1.09.12-2.15-.19-2.78-1.47-.78-1.59-.11-3.41,1.83-4.36l3.42-1.68,4.7,9.55Zm-7.62-6.72c-1.28.63-1.59,1.62-1.13,2.56.46.93,1.45,1.31,2.71.69l2.23-1.1-1.6-3.24-2.22,1.09Zm2.46,4.16c-1.02.5-1.32,1.43-.9,2.28.4.81,1.34,1.2,2.36.69l1.88-.93-1.46-2.97-1.88.93Z"
				/>
				<path
					class="cls-5"
					d="m367.4,453.92l-1.3.49-3.3-8.73-4.81,1.82-.47-1.24,6.12-2.31,3.76,9.96Z"
				/>
				<path
					class="cls-5"
					d="m351.16,459.84l-6.01,1.56-.33-1.28,4.66-1.21-.81-3.12-3.79.98-.33-1.28,3.79-.98-.87-3.35-4.66,1.21-.33-1.28,6.01-1.56,2.67,10.31Z"
				/>
				<path
					class="cls-5"
					d="m334.47,464.05l-3.58.57c-1.94.31-3.33-.67-3.6-2.4-.25-1.54.57-2.73,2.14-3.23l-4.81-4.15,1.73-.28,4.81,4.14,1.02-.16-.76-4.78,1.38-.22,1.68,10.52Zm-4.14-3.96c-1.2.19-1.84.85-1.67,1.91.17,1.07.99,1.51,2.19,1.32l2.04-.33-.52-3.23-2.04.33Z"
				/>
				<path
					class="cls-5"
					d="m303.67,467.5h-1.39s.09-9.34.09-9.34l-5.15-.05v-1.32s6.55.06,6.55.06l-.1,10.65Z"
				/>
				<path
					class="cls-5"
					d="m286.52,467.11l-6.17-.66.14-1.31,4.79.51.34-3.21-3.89-.41.14-1.31,3.89.41.37-3.45-4.79-.51.14-1.31,6.17.66-1.12,10.59Z"
				/>
				<path
					class="cls-5"
					d="m269.26,465.13l-1.36-.3.97-4.44-5.7-1.25-.97,4.44-1.36-.3,2.28-10.4,1.36.3-1.03,4.69,5.7,1.25,1.03-4.69,1.36.3-2.28,10.4Z"
				/>
				<path
					class="cls-5"
					d="m249.18,460.47l-3.44-1.16c-1.86-.63-2.63-2.14-2.07-3.8.5-1.48,1.77-2.16,3.4-1.86l-2.32-5.92,1.66.56,2.33,5.9.98.33,1.55-4.59,1.32.45-3.42,10.09Zm-1.82-5.43c-1.15-.39-2.02-.1-2.37.91-.35,1.02.17,1.8,1.32,2.19l1.96.66,1.05-3.1-1.96-.66Z"
				/>
				<path
					class="cls-5"
					d="m231.52,454.25l-5.65-2.57.54-1.2,4.38,1.99,1.33-2.94-3.56-1.62.55-1.2,3.56,1.62,1.43-3.16-4.38-1.99.55-1.2,5.65,2.57-4.4,9.7Z"
				/>
				<path
					class="cls-5"
					d="m215.86,446.97l-3.14-1.82c-1.7-.99-2.16-2.62-1.27-4.14.78-1.35,2.17-1.76,3.7-1.15l-1.1-6.26,1.52.88,1.11,6.25.9.52,2.43-4.19,1.21.7-5.35,9.21Zm-.71-5.68c-1.05-.61-1.96-.5-2.5.42-.54.93-.19,1.79.86,2.41l1.79,1.04,1.64-2.83-1.79-1.04Z"
				/>
				<path
					class="cls-5"
					d="m205.43,428.11c.5.35.61,1.06.26,1.56-.35.49-1.05.63-1.56.28-.5-.35-.6-1.07-.26-1.56.35-.5,1.05-.63,1.56-.28Z"
				/>
				<path
					class="cls-5"
					d="m192.39,426.09c.48.38.55,1.09.16,1.57-.38.47-1.09.57-1.57.18-.48-.38-.54-1.1-.16-1.57.38-.48,1.09-.57,1.57-.18Z"
				/>
				<path class="cls-5" d="m180.28,422.3l-1.02-.95,7.26-7.79,1.02.95-7.26,7.79Z" />
				<path
					class="cls-5"
					d="m173.38,400.34l-1.95,10.35,6.23-5.48.92,1.05-7.99,7.04-.8-.91,1.95-10.34-6.23,5.48-.91-1.04,7.99-7.04.79.9Z"
				/>
				<path
					class="cls-5"
					d="m161.06,384.75l-3.19,10.03,6.85-4.68.79,1.15-8.79,6.01-.69-1,3.19-10.03-6.85,4.68-.78-1.14,8.79-6.01.68.99Z"
				/>
				<path
					class="cls-5"
					d="m145.15,379.85l-3-5.44,1.16-.64,2.32,4.22,2.83-1.56-1.89-3.43,1.16-.64,1.89,3.43,3.04-1.67-2.32-4.22,1.16-.64,3,5.44-9.33,5.14Z"
				/>
				<path
					class="cls-5"
					d="m143.77,353.18l-5.16,9.18,7.65-3.2.54,1.29-9.83,4.1-.47-1.12,5.16-9.18-7.65,3.2-.53-1.27,9.83-4.1.46,1.11Z"
				/>
				<path
					class="cls-5"
					d="m129.15,344.89l-.95-3.36c-.54-1.9.4-3.42,1.84-3.83,1.01-.29,1.82-.03,2.4.5.08-1.1.58-2.08,1.95-2.47,1.7-.48,3.37.51,3.96,2.59l1.04,3.67-10.25,2.91Zm3.45-4.61c-.31-1.1-1.17-1.55-2.08-1.3-.87.25-1.42,1.1-1.11,2.2l.57,2.02,3.19-.91-.57-2.02Zm4.53-1.68c-.39-1.37-1.31-1.86-2.32-1.57-1,.28-1.55,1.19-1.17,2.54l.68,2.4,3.48-.99-.68-2.38Z"
				/>
				<path class="cls-5" d="m124.4,327.11l-.27-1.37,10.45-2.04.27,1.37-10.45,2.04Z" />
				<path
					class="cls-5"
					d="m122.02,314.26l-.15-1.39,9.27-1.02-.56-5.11,1.31-.14.71,6.5-10.59,1.16Z"
				/>
				<path
					class="cls-5"
					d="m120.34,297.05v-3.06c0-3.27,2.28-5.67,5.32-5.67s5.32,2.4,5.33,5.67v3.06s-10.65,0-10.65,0Zm9.34-3.06c0-2.56-1.71-4.26-4.02-4.26-2.31,0-4.02,1.7-4.02,4.26v1.67s8.04,0,8.04,0v-1.67Z"
				/>
				<path
					class="cls-5"
					d="m131.78,274.22c-.3,2.44-2.16,3.94-4.79,3.61l-6.46-.79.17-1.38,6.49.8c1.89.23,3.08-.74,3.29-2.39.2-1.65-.72-2.88-2.61-3.12l-6.49-.8.17-1.38,6.46.79c2.63.32,4.08,2.22,3.78,4.66Z"
				/>
				<path
					class="cls-5"
					d="m135.33,251.78l-9.57,4.38,8.07,1.92-.32,1.36-10.36-2.47.28-1.18,9.57-4.38-8.07-1.92.32-1.34,10.36,2.47-.28,1.17Z"
				/>
				<path
					class="cls-5"
					d="m129.87,231.76c.89-2.36,3.03-3.6,4.89-3.54l-.54,1.45c-1.28.13-2.55,1.06-3.11,2.56-.84,2.22.26,4.51,2.46,5.33,2.21.83,4.54-.17,5.37-2.39.77-2.05-.13-4.03-2.03-4.95l-1.4,3.72-1.22-.46,1.9-5.05c3.74,1.09,5.08,4.3,3.99,7.21-1.1,2.92-4.19,4.32-7.1,3.23s-4.31-4.19-3.21-7.11Z"
				/>
				<path
					class="cls-5"
					d="m146,221.14c-.26.56-.93.79-1.49.53-.54-.25-.81-.92-.55-1.48.26-.56.95-.78,1.49-.53.56.26.81.92.55,1.48Z"
				/>
				<g class="cls-11">
					<g class="cls-12">
						<g class="cls-10">
							<path
								class="cls-4"
								d="m275.78,168.9h9v.43h-8.55v6.5h8.13v.43h-8.13v6.97h8.71l-.15.43h-9.02v-14.78Z"
							/>
							<path class="cls-4" d="m289.36,168.9h.46v14.78h-.46v-14.78Z" />
							<path
								class="cls-4"
								d="m295.3,168.9h.52l9.42,14.16v-14.16h.46v14.78h-.56l-9.37-14.11v14.11h-.46v-14.78Z"
							/>
							<path
								class="cls-4"
								d="m311.15,168.9h9v.43h-8.55v6.5h8.13v.43h-8.13v6.97h8.71l-.14.43h-9.02v-14.78Z"
							/>
							<path
								class="cls-4"
								d="m201.98,194.73h7.34c4.37,0,6.56,1.92,6.56,5.77,0,3.02-1.36,4.88-4.08,5.56l4.74,10.24h-.73l-4.65-10.12c-.52.1-1.18.15-1.96.15h-6.56v9.97h-.66v-21.57Zm7.25,10.97c2.03,0,3.54-.42,4.5-1.27.97-.85,1.45-2.16,1.45-3.93s-.48-3.07-1.45-3.9c-.97-.83-2.48-1.24-4.53-1.24h-6.56v10.33h6.59Z"
							/>
							<path
								class="cls-4"
								d="m230.47,194.73h.76l8.49,21.57h-.76l-2.78-7.13h-10.7l-2.78,7.13h-.73l8.49-21.57Zm5.47,13.81l-5.11-13.11-5.11,13.11h10.21Z"
							/>
							<path
								class="cls-4"
								d="m258.75,210.84c0-1.57-.42-2.74-1.25-3.5s-2.27-1.31-4.31-1.63l-2.45-.39c-2.01-.34-3.48-.95-4.4-1.81-.92-.87-1.38-2.09-1.38-3.69,0-1.79.61-3.18,1.84-4.15,1.23-.98,2.95-1.47,5.17-1.47,2.01,0,3.59.4,4.73,1.21,1.14.81,1.96,2.11,2.46,3.9l-.6.15c-.44-1.63-1.19-2.81-2.24-3.54-1.05-.73-2.5-1.09-4.35-1.09-2.07,0-3.65.42-4.73,1.27-1.08.85-1.62,2.07-1.62,3.69,0,1.47.41,2.58,1.22,3.34s2.2,1.28,4.15,1.59l2.42.36c2.09.3,3.62.91,4.58,1.83.96.92,1.44,2.23,1.44,3.94,0,1.93-.61,3.41-1.83,4.43-1.22,1.02-2.98,1.53-5.27,1.53s-4.1-.48-5.48-1.45c-1.38-.97-2.19-2.34-2.43-4.11h.6c.28,1.59,1.05,2.81,2.31,3.66,1.26.85,2.93,1.27,5,1.27,4.27,0,6.41-1.77,6.41-5.32Z"
							/>
							<path
								class="cls-4"
								d="m279.75,210.84c0-1.57-.42-2.74-1.25-3.5s-2.27-1.31-4.31-1.63l-2.45-.39c-2.01-.34-3.48-.95-4.4-1.81-.92-.87-1.38-2.09-1.38-3.69,0-1.79.61-3.18,1.84-4.15,1.23-.98,2.95-1.47,5.17-1.47,2.01,0,3.59.4,4.73,1.21,1.14.81,1.96,2.11,2.46,3.9l-.6.15c-.44-1.63-1.19-2.81-2.24-3.54-1.05-.73-2.5-1.09-4.35-1.09-2.07,0-3.65.42-4.73,1.27-1.08.85-1.62,2.07-1.62,3.69,0,1.47.41,2.58,1.22,3.34s2.2,1.28,4.15,1.59l2.42.36c2.09.3,3.62.91,4.58,1.83.96.92,1.44,2.23,1.44,3.94,0,1.93-.61,3.41-1.83,4.43-1.22,1.02-2.98,1.53-5.27,1.53s-4.1-.48-5.48-1.45c-1.38-.97-2.19-2.34-2.43-4.11h.6c.28,1.59,1.05,2.81,2.31,3.66,1.26.85,2.93,1.27,5,1.27,4.27,0,6.41-1.77,6.41-5.32Z"
							/>
							<path class="cls-4" d="m287.43,194.73h.66v21.57h-.66v-21.57Z" />
							<path
								class="cls-4"
								d="m309.06,210.84c0-1.57-.42-2.74-1.25-3.5-.84-.77-2.27-1.31-4.31-1.63l-2.45-.39c-2.02-.34-3.48-.95-4.4-1.81-.92-.87-1.38-2.09-1.38-3.69,0-1.79.61-3.18,1.84-4.15,1.23-.98,2.95-1.47,5.17-1.47,2.01,0,3.59.4,4.73,1.21,1.14.81,1.96,2.11,2.46,3.9l-.6.15c-.44-1.63-1.19-2.81-2.24-3.54-1.05-.73-2.5-1.09-4.35-1.09-2.07,0-3.65.42-4.73,1.27-1.08.85-1.62,2.07-1.62,3.69,0,1.47.41,2.58,1.22,3.34s2.2,1.28,4.15,1.59l2.42.36c2.09.3,3.62.91,4.58,1.83.96.92,1.43,2.23,1.43,3.94,0,1.93-.61,3.41-1.83,4.43-1.22,1.02-2.97,1.53-5.27,1.53s-4.11-.48-5.48-1.45c-1.38-.97-2.19-2.34-2.43-4.11h.6c.28,1.59,1.05,2.81,2.31,3.66,1.26.85,2.93,1.27,5,1.27,4.27,0,6.41-1.77,6.41-5.32Z"
							/>
							<path
								class="cls-4"
								d="m316.74,194.73h.82l8.85,20.73,8.88-20.73h.79v21.57h-.63v-20.43l-8.73,20.43h-.6l-8.73-20.43v20.43h-.63v-21.57Z"
							/>
							<path
								class="cls-4"
								d="m344.54,207.97c0,5.46,2.29,8.19,6.86,8.19s6.86-2.73,6.86-8.19v-13.23h.66v13.14c0,5.94-2.51,8.91-7.52,8.91s-7.52-2.97-7.52-8.91v-13.14h.67v13.23Z"
							/>
							<path
								class="cls-4"
								d="m379.65,210.84c0-1.57-.42-2.74-1.25-3.5-.84-.77-2.27-1.31-4.31-1.63l-2.45-.39c-2.01-.34-3.48-.95-4.4-1.81-.92-.87-1.38-2.09-1.38-3.69,0-1.79.61-3.18,1.84-4.15,1.23-.98,2.95-1.47,5.17-1.47,2.01,0,3.59.4,4.73,1.21,1.14.81,1.96,2.11,2.46,3.9l-.6.15c-.44-1.63-1.19-2.81-2.24-3.54-1.05-.73-2.5-1.09-4.35-1.09-2.08,0-3.65.42-4.73,1.27-1.08.85-1.62,2.07-1.62,3.69,0,1.47.41,2.58,1.22,3.34s2.2,1.28,4.15,1.59l2.42.36c2.09.3,3.62.91,4.58,1.83.96.92,1.43,2.23,1.43,3.94,0,1.93-.61,3.41-1.83,4.43-1.22,1.02-2.98,1.53-5.27,1.53s-4.1-.48-5.48-1.45c-1.38-.97-2.19-2.34-2.43-4.11h.6c.28,1.59,1.05,2.81,2.31,3.66,1.26.85,2.93,1.27,5,1.27,4.27,0,6.41-1.77,6.41-5.32Z"
							/>
							<path class="cls-4" d="m385.6,207.3h8.67v.6h-8.67v-.6Z" />
							<path class="cls-4" d="m184.87,228h-7.67v-.63h16.01v.63h-7.67v20.94h-.67v-20.94Z" />
							<path
								class="cls-4"
								d="m199.17,227.37h.66v10.06h13.81v-10.06h.67v21.57h-.67v-10.88h-13.81v10.88h-.66v-21.57Z"
							/>
							<path
								class="cls-4"
								d="m222.22,227.37h13.14v.63h-12.48v9.49h11.88v.63h-11.88v10.18h12.72l-.21.63h-13.17v-21.57Z"
							/>
							<path
								class="cls-4"
								d="m242.27,244.17c-.76-1.69-1.13-3.71-1.13-6.04s.38-4.35,1.13-6.04c.76-1.69,1.83-2.99,3.22-3.9,1.39-.91,3.04-1.36,4.96-1.36s3.57.45,4.96,1.36c1.39.91,2.46,2.2,3.22,3.88.76,1.68,1.13,3.69,1.13,6.03s-.38,4.38-1.13,6.07c-.76,1.69-1.83,2.99-3.22,3.9-1.39.91-3.04,1.36-4.96,1.36s-3.57-.45-4.96-1.36c-1.39-.91-2.46-2.21-3.22-3.9Zm15.74-.33c.69-1.59,1.04-3.5,1.04-5.71s-.35-4.12-1.04-5.71-1.68-2.81-2.96-3.67c-1.28-.86-2.82-1.28-4.61-1.28s-3.3.43-4.59,1.28c-1.29.86-2.28,2.08-2.98,3.67-.69,1.59-1.04,3.5-1.04,5.71s.35,4.12,1.04,5.71c.7,1.59,1.69,2.81,2.98,3.67,1.29.86,2.82,1.28,4.59,1.28s3.33-.43,4.61-1.28c1.28-.86,2.27-2.08,2.96-3.67Z"
							/>
							<path
								class="cls-4"
								d="m266.79,227.37h7.34c4.37,0,6.56,1.92,6.56,5.77,0,3.02-1.36,4.88-4.08,5.56l4.74,10.24h-.73l-4.65-10.12c-.52.1-1.18.15-1.96.15h-6.56v9.97h-.66v-21.57Zm7.25,10.97c2.03,0,3.54-.42,4.5-1.27.97-.85,1.45-2.16,1.45-3.93s-.48-3.07-1.45-3.9c-.97-.83-2.48-1.24-4.53-1.24h-6.56v10.33h6.59Z"
							/>
							<path
								class="cls-4"
								d="m287.91,227.37h13.14v.63h-12.48v9.49h11.88v.63h-11.88v10.18h12.72l-.21.63h-13.18v-21.57Z"
							/>
							<path class="cls-4" d="m314.2,228h-7.67v-.63h16.01v.63h-7.67v20.94h-.67v-20.94Z" />
							<path class="cls-4" d="m328.49,227.37h.67v21.57h-.67v-21.57Z" />
							<path
								class="cls-4"
								d="m350.13,243.47c0-1.57-.42-2.74-1.25-3.5-.84-.77-2.27-1.31-4.31-1.63l-2.45-.39c-2.01-.34-3.48-.95-4.4-1.81-.92-.87-1.38-2.09-1.38-3.69,0-1.79.61-3.18,1.84-4.15,1.23-.98,2.95-1.47,5.17-1.47,2.01,0,3.59.4,4.73,1.21,1.14.81,1.96,2.11,2.46,3.9l-.6.15c-.44-1.63-1.19-2.81-2.24-3.54-1.05-.73-2.5-1.09-4.35-1.09-2.08,0-3.65.42-4.73,1.27-1.08.85-1.62,2.07-1.62,3.69,0,1.47.41,2.58,1.22,3.34s2.2,1.28,4.15,1.59l2.42.36c2.09.3,3.62.91,4.58,1.83.96.92,1.43,2.23,1.43,3.94,0,1.93-.61,3.41-1.83,4.43-1.22,1.02-2.98,1.53-5.27,1.53s-4.1-.48-5.48-1.45c-1.38-.97-2.19-2.34-2.43-4.11h.6c.28,1.59,1.05,2.81,2.31,3.66,1.26.85,2.93,1.27,5,1.27,4.27,0,6.41-1.77,6.41-5.32Z"
							/>
							<path
								class="cls-4"
								d="m365.9,227.46c-2.66,0-4.73.94-6.21,2.81-1.48,1.87-2.22,4.49-2.22,7.86s.75,5.96,2.25,7.84c1.5,1.88,3.58,2.83,6.24,2.83,2.03,0,3.7-.59,5-1.78,1.3-1.19,2.11-2.86,2.43-5.02h.6c-.3,2.34-1.16,4.16-2.58,5.47s-3.26,1.96-5.51,1.96c-1.89,0-3.52-.45-4.88-1.36-1.36-.91-2.41-2.2-3.14-3.88-.74-1.68-1.1-3.68-1.1-6s.36-4.41,1.09-6.1c.73-1.69,1.77-2.99,3.13-3.9,1.36-.91,2.99-1.36,4.88-1.36,2.07,0,3.79.59,5.14,1.77,1.35,1.18,2.26,2.89,2.72,5.12l-.6.15c-.99-4.27-3.39-6.41-7.22-6.41Z"
							/>
							<path
								class="cls-4"
								d="m380.77,227.37h.67v10.06h13.81v-10.06h.67v21.57h-.67v-10.88h-13.81v10.88h-.67v-21.57Z"
							/>
							<path
								class="cls-4"
								d="m403.82,227.37h13.14v.63h-12.48v9.49h11.88v.63h-11.88v10.18h12.72l-.21.63h-13.17v-21.57Z"
							/>
							<path
								class="cls-4"
								d="m169.46,273.24c0,5.46,2.29,8.19,6.86,8.19s6.86-2.73,6.86-8.19v-13.23h.67v13.14c0,5.94-2.51,8.91-7.52,8.91s-7.52-2.97-7.52-8.91v-13.14h.66v13.23Z"
							/>
							<path
								class="cls-4"
								d="m191.64,260h.76l13.75,20.67v-20.67h.67v21.57h-.82l-13.69-20.61v20.61h-.66v-21.57Z"
							/>
							<path
								class="cls-4"
								d="m220.44,260.64h-7.67v-.63h16.01v.63h-7.67v20.94h-.67v-20.94Z"
							/>
							<path
								class="cls-4"
								d="m234.73,260h13.14v.63h-12.48v9.49h11.88v.63h-11.88v10.18h12.72l-.21.63h-13.17v-21.57Z"
							/>
							<path
								class="cls-4"
								d="m254.43,260h7.34c4.37,0,6.56,1.92,6.56,5.77,0,3.02-1.36,4.88-4.08,5.56l4.74,10.24h-.73l-4.65-10.12c-.52.1-1.18.15-1.96.15h-6.56v9.97h-.66v-21.57Zm7.25,10.97c2.03,0,3.54-.42,4.5-1.27.97-.85,1.45-2.16,1.45-3.93s-.48-3.07-1.45-3.9c-.97-.83-2.48-1.24-4.53-1.24h-6.56v10.33h6.59Z"
							/>
							<path
								class="cls-4"
								d="m288.49,276.11c0-1.57-.42-2.74-1.25-3.5s-2.27-1.31-4.31-1.63l-2.45-.39c-2.01-.34-3.48-.95-4.4-1.81-.92-.87-1.38-2.09-1.38-3.69,0-1.79.61-3.18,1.84-4.15,1.23-.98,2.95-1.47,5.17-1.47,2.01,0,3.59.4,4.73,1.21,1.14.81,1.96,2.11,2.46,3.9l-.6.15c-.44-1.63-1.19-2.81-2.24-3.54-1.05-.73-2.5-1.09-4.35-1.09-2.07,0-3.65.42-4.73,1.27-1.08.85-1.62,2.07-1.62,3.69,0,1.47.41,2.58,1.22,3.34s2.2,1.28,4.15,1.59l2.42.36c2.09.3,3.62.91,4.58,1.83.96.92,1.44,2.23,1.44,3.94,0,1.93-.61,3.41-1.83,4.43-1.22,1.02-2.98,1.53-5.27,1.53s-4.1-.48-5.48-1.45c-1.38-.97-2.19-2.34-2.43-4.11h.6c.28,1.59,1.05,2.81,2.31,3.66,1.26.85,2.93,1.27,5,1.27,4.27,0,6.41-1.77,6.41-5.32Z"
							/>
							<path
								class="cls-4"
								d="m296.52,273.24c0,5.46,2.29,8.19,6.86,8.19s6.86-2.73,6.86-8.19v-13.23h.66v13.14c0,5.94-2.51,8.91-7.52,8.91s-7.52-2.97-7.52-8.91v-13.14h.66v13.23Z"
							/>
							<path
								class="cls-4"
								d="m326.92,260.09c-2.66,0-4.73.94-6.21,2.81-1.48,1.87-2.22,4.49-2.22,7.86s.75,5.96,2.25,7.84c1.5,1.88,3.58,2.83,6.24,2.83,2.03,0,3.7-.59,5-1.78,1.3-1.19,2.11-2.86,2.43-5.02h.6c-.3,2.34-1.16,4.16-2.58,5.47s-3.26,1.96-5.51,1.96c-1.89,0-3.52-.45-4.88-1.36-1.36-.91-2.41-2.2-3.14-3.88-.74-1.68-1.1-3.68-1.1-6s.36-4.41,1.09-6.1c.73-1.69,1.77-2.99,3.13-3.9,1.36-.91,2.99-1.36,4.88-1.36,2.07,0,3.79.59,5.14,1.77,1.35,1.18,2.26,2.89,2.72,5.12l-.6.15c-.99-4.27-3.39-6.41-7.22-6.41Z"
							/>
							<path
								class="cls-4"
								d="m341.79,260h.67v10.06h13.81v-10.06h.67v21.57h-.67v-10.88h-13.81v10.88h-.67v-21.57Z"
							/>
							<path
								class="cls-4"
								d="m365.39,273.24c0,5.46,2.29,8.19,6.86,8.19s6.86-2.73,6.86-8.19v-13.23h.66v13.14c0,5.94-2.51,8.91-7.52,8.91s-7.52-2.97-7.52-8.91v-13.14h.67v13.23Z"
							/>
							<path
								class="cls-4"
								d="m387.57,260h.76l13.75,20.67v-20.67h.67v21.57h-.82l-13.69-20.61v20.61h-.67v-21.57Z"
							/>
							<path
								class="cls-4"
								d="m426.76,279.4c-.85.83-1.91,1.48-3.2,1.95s-2.66.71-4.11.71c-3.08,0-5.46-.97-7.13-2.92-1.67-1.94-2.51-4.69-2.51-8.23,0-2.22.34-4.19,1.03-5.91.68-1.72,1.71-3.08,3.08-4.06,1.37-.99,3.07-1.48,5.11-1.48,3.93,0,6.36,1.91,7.28,5.74l-.6.15c-.91-3.5-3.14-5.26-6.71-5.26-1.95,0-3.56.47-4.8,1.4-1.25.94-2.18,2.22-2.78,3.84-.6,1.62-.91,3.47-.91,5.54,0,3.4.78,6.01,2.33,7.83,1.55,1.81,3.76,2.72,6.62,2.72,1.43,0,2.71-.2,3.84-.6,1.13-.4,2.06-.95,2.81-1.63v-7.01h-6.56v-.63h7.22v7.86Z"
							/>
							<path
								class="cls-4"
								d="m196.08,299.46h.5l5.34,14.28,5.34-14.28h.48l-5.55,14.78h-.56l-5.55-14.78Z"
							/>
							<path
								class="cls-4"
								d="m211.55,310.96c-.52-1.16-.78-2.54-.78-4.14s.26-2.98.78-4.14c.52-1.16,1.25-2.05,2.2-2.67.95-.62,2.08-.93,3.39-.93s2.44.31,3.39.93c.95.62,1.69,1.51,2.2,2.66.52,1.15.78,2.53.78,4.13s-.26,3-.78,4.16c-.52,1.16-1.25,2.05-2.2,2.67-.95.62-2.08.93-3.39.93s-2.44-.31-3.39-.93c-.95-.62-1.69-1.51-2.2-2.67Zm10.78-.23c.48-1.09.71-2.39.71-3.91s-.24-2.82-.71-3.91c-.48-1.09-1.15-1.93-2.03-2.51-.88-.59-1.93-.88-3.16-.88s-2.26.29-3.15.88c-.88.59-1.56,1.42-2.04,2.51-.48,1.09-.71,2.39-.71,3.91s.24,2.82.71,3.91c.48,1.09,1.16,1.93,2.04,2.51.88.59,1.93.88,3.15.88s2.28-.29,3.16-.88c.88-.59,1.55-1.42,2.03-2.51Z"
							/>
							<path
								class="cls-4"
								d="m228.4,299.46h.52l9.42,14.16v-14.16h.46v14.78h-.56l-9.38-14.12v14.12h-.46v-14.78Z"
							/>
							<path
								class="cls-4"
								d="m267.87,308.76c0-1.57-.42-2.74-1.25-3.51-.84-.76-2.27-1.31-4.31-1.63l-2.45-.39c-2.01-.34-3.48-.95-4.4-1.81-.92-.87-1.38-2.1-1.38-3.69,0-1.79.61-3.18,1.84-4.15,1.23-.98,2.95-1.47,5.17-1.47,2.01,0,3.59.4,4.73,1.21,1.14.81,1.96,2.11,2.46,3.9l-.6.15c-.44-1.63-1.19-2.81-2.24-3.54-1.05-.73-2.5-1.09-4.35-1.09-2.07,0-3.65.42-4.73,1.27-1.08.85-1.62,2.07-1.62,3.69,0,1.47.41,2.58,1.22,3.34.82.75,2.2,1.28,4.15,1.59l2.42.36c2.09.3,3.62.91,4.58,1.83.96.92,1.44,2.23,1.44,3.94,0,1.93-.61,3.41-1.83,4.43-1.22,1.02-2.98,1.53-5.27,1.53s-4.1-.48-5.48-1.45c-1.38-.97-2.19-2.34-2.43-4.11h.6c.28,1.59,1.05,2.81,2.31,3.66,1.26.85,2.93,1.27,5,1.27,4.27,0,6.41-1.77,6.41-5.32Z"
							/>
							<path
								class="cls-4"
								d="m280.65,293.29h-7.67v-.63h16.01v.63h-7.67v20.94h-.67v-20.94Z"
							/>
							<path
								class="cls-4"
								d="m295.54,305.89c0,5.46,2.29,8.19,6.86,8.19s6.86-2.73,6.86-8.19v-13.23h.66v13.14c0,5.94-2.51,8.91-7.52,8.91s-7.52-2.97-7.52-8.91v-13.14h.66v13.23Z"
							/>
							<path
								class="cls-4"
								d="m317.72,292.66h6.92c3.02,0,5.35.94,6.98,2.81s2.45,4.53,2.45,7.98-.85,6.2-2.54,8.04c-1.69,1.83-4.16,2.75-7.4,2.75h-6.41v-21.57Zm6.44,20.94c3.02,0,5.31-.86,6.87-2.57,1.56-1.71,2.34-4.22,2.34-7.52s-.75-5.86-2.24-7.6c-1.49-1.74-3.66-2.61-6.5-2.61h-6.25v20.31h5.77Z"
							/>
							<path class="cls-4" d="m341.14,292.66h.67v21.57h-.67v-21.57Z" />
							<path
								class="cls-4"
								d="m350.27,305.89c0,5.46,2.29,8.19,6.86,8.19s6.86-2.73,6.86-8.19v-13.23h.66v13.14c0,5.94-2.51,8.91-7.52,8.91s-7.52-2.97-7.52-8.91v-13.14h.67v13.23Z"
							/>
							<path
								class="cls-4"
								d="m372.45,292.66h.82l8.85,20.73,8.88-20.73h.79v21.57h-.63v-20.43l-8.73,20.43h-.6l-8.73-20.43v20.43h-.63v-21.57Z"
							/>
							<path class="cls-4" d="m398.12,312.23h.48l-.79,3.79h-.39l.7-3.79Z" />
							<path
								class="cls-4"
								d="m173.45,325.29h7.34c4.37,0,6.56,1.92,6.56,5.77,0,3.02-1.36,4.88-4.08,5.56l4.74,10.24h-.73l-4.65-10.12c-.52.1-1.18.15-1.96.15h-6.56v9.97h-.66v-21.58Zm7.25,10.97c2.03,0,3.54-.42,4.5-1.27.97-.85,1.45-2.16,1.45-3.93s-.48-3.07-1.45-3.9-2.48-1.24-4.53-1.24h-6.56v10.33h6.59Z"
							/>
							<path
								class="cls-4"
								d="m194.57,325.29h13.14v.63h-12.48v9.49h11.88v.63h-11.88v10.18h12.72l-.21.63h-13.17v-21.58Z"
							/>
							<path
								class="cls-4"
								d="m214.28,325.29h12.36v.63h-11.69v9.73h11.03v.63h-11.03v10.58h-.66v-21.58Z"
							/>
							<path
								class="cls-4"
								d="m232.98,325.29h13.14v.63h-12.48v9.49h11.88v.63h-11.88v10.18h12.72l-.21.63h-13.17v-21.58Z"
							/>
							<path
								class="cls-4"
								d="m252.68,325.29h7.34c4.37,0,6.56,1.92,6.56,5.77,0,3.02-1.36,4.88-4.08,5.56l4.74,10.24h-.73l-4.65-10.12c-.52.1-1.18.15-1.96.15h-6.56v9.97h-.66v-21.58Zm7.25,10.97c2.03,0,3.54-.42,4.5-1.27.97-.85,1.45-2.16,1.45-3.93s-.48-3.07-1.45-3.9-2.48-1.24-4.53-1.24h-6.56v10.33h6.59Z"
							/>
							<path
								class="cls-4"
								d="m273.8,325.29h13.14v.63h-12.48v9.49h11.88v.63h-11.88v10.18h12.72l-.21.63h-13.17v-21.58Z"
							/>
							<path
								class="cls-4"
								d="m293.5,325.29h.76l13.75,20.67v-20.67h.66v21.58h-.82l-13.69-20.61v20.61h-.66v-21.58Z"
							/>
							<path
								class="cls-4"
								d="m316.56,325.29h6.92c3.02,0,5.35.94,6.98,2.81s2.45,4.53,2.45,7.98-.85,6.2-2.54,8.04c-1.69,1.83-4.16,2.75-7.4,2.75h-6.41v-21.58Zm6.44,20.94c3.02,0,5.31-.86,6.87-2.57,1.56-1.71,2.34-4.22,2.34-7.52s-.75-5.86-2.24-7.6-3.66-2.61-6.5-2.61h-6.25v20.31h5.77Z"
							/>
							<path
								class="cls-4"
								d="m345.63,325.29h.76l8.49,21.58h-.75l-2.78-7.13h-10.7l-2.78,7.13h-.72l8.49-21.58Zm5.47,13.81l-5.11-13.11-5.11,13.11h10.21Z"
							/>
							<path
								class="cls-4"
								d="m360.92,325.29h7.34c4.37,0,6.56,1.92,6.56,5.77,0,3.02-1.36,4.88-4.08,5.56l4.74,10.24h-.73l-4.65-10.12c-.52.1-1.18.15-1.96.15h-6.56v9.97h-.67v-21.58Zm7.25,10.97c2.03,0,3.54-.42,4.5-1.27.97-.85,1.45-2.16,1.45-3.93s-.48-3.07-1.45-3.9c-.97-.83-2.48-1.24-4.53-1.24h-6.56v10.33h6.59Z"
							/>
							<path class="cls-4" d="m382.01,325.29h.67v21.58h-.67v-21.58Z" />
							<path
								class="cls-4"
								d="m397.21,325.29h.76l8.49,21.58h-.75l-2.78-7.13h-10.7l-2.78,7.13h-.72l8.49-21.58Zm5.47,13.81l-5.11-13.11-5.11,13.11h10.21Z"
							/>
							<path
								class="cls-4"
								d="m415.28,325.93h-7.67v-.63h16.01v.63h-7.67v20.94h-.67v-20.94Z"
							/>
							<path
								class="cls-4"
								d="m204.13,373.8c0,3.74,1.57,5.61,4.7,5.61s4.7-1.87,4.7-5.61v-9.07h.46v9c0,4.07-1.72,6.11-5.15,6.11s-5.15-2.04-5.15-6.11v-9h.46v9.07Z"
							/>
							<path
								class="cls-4"
								d="m219.39,364.74h.52l9.42,14.16v-14.16h.46v14.78h-.56l-9.38-14.12v14.12h-.46v-14.78Z"
							/>
							<path
								class="cls-4"
								d="m235.26,364.74h4.74c2.07,0,3.66.64,4.78,1.92,1.12,1.28,1.68,3.1,1.68,5.46s-.58,4.25-1.74,5.5c-1.16,1.26-2.85,1.88-5.07,1.88h-4.39v-14.78Zm4.41,14.34c2.07,0,3.64-.59,4.71-1.76s1.6-2.89,1.6-5.15-.51-4.01-1.53-5.21-2.5-1.79-4.45-1.79h-4.28v13.91h3.95Z"
							/>
							<path
								class="cls-4"
								d="m261.8,357.94h7.55c1.93,0,3.43.45,4.5,1.36,1.07.91,1.6,2.2,1.6,3.87,0,1.33-.36,2.44-1.07,3.34-.72.9-1.71,1.45-2.98,1.65,1.51.18,2.68.77,3.51,1.75.83.99,1.24,2.28,1.24,3.87,0,1.83-.58,3.25-1.74,4.25s-2.81,1.5-4.94,1.5h-7.67v-21.58Zm7.95,9.94c1.57,0,2.81-.41,3.7-1.24.9-.83,1.34-1.97,1.34-3.45,0-3.08-1.82-4.62-5.47-4.62h-6.86v9.31h7.28Zm-.33,11c4.03,0,6.04-1.72,6.04-5.17,0-1.65-.5-2.93-1.5-3.84-1-.91-2.4-1.36-4.22-1.36h-7.28v10.36h6.95Z"
							/>
							<path
								class="cls-4"
								d="m283.1,357.94h13.14v.63h-12.48v9.49h11.88v.63h-11.88v10.18h12.72l-.21.63h-13.17v-21.58Z"
							/>
							<path
								class="cls-4"
								d="m302.81,357.94h7.34c4.37,0,6.56,1.92,6.56,5.77,0,3.02-1.36,4.88-4.08,5.56l4.74,10.24h-.73l-4.65-10.12c-.52.1-1.18.15-1.96.15h-6.56v9.97h-.67v-21.58Zm7.25,10.97c2.03,0,3.54-.42,4.5-1.27.97-.85,1.45-2.16,1.45-3.93s-.48-3.07-1.45-3.9c-.97-.83-2.48-1.24-4.53-1.24h-6.56v10.33h6.59Z"
							/>
							<path
								class="cls-4"
								d="m324.29,371.17c0,5.46,2.29,8.19,6.86,8.19s6.86-2.73,6.86-8.19v-13.24h.66v13.14c0,5.94-2.51,8.91-7.52,8.91s-7.52-2.97-7.52-8.91v-13.14h.67v13.24Z"
							/>
							<path
								class="cls-4"
								d="m346.11,357.94h12.36v.63h-11.69v9.73h11.03v.63h-11.03v10.58h-.67v-21.58Z"
							/>
							<path
								class="cls-4"
								d="m377.08,374.04c0-1.57-.42-2.74-1.25-3.51-.84-.76-2.27-1.31-4.31-1.63l-2.45-.39c-2.01-.34-3.48-.95-4.4-1.81-.92-.87-1.38-2.1-1.38-3.69,0-1.79.61-3.18,1.84-4.16,1.23-.98,2.95-1.46,5.17-1.46,2.01,0,3.59.4,4.73,1.21,1.14.81,1.96,2.11,2.46,3.9l-.6.15c-.44-1.63-1.19-2.81-2.24-3.54-1.05-.72-2.5-1.09-4.35-1.09-2.08,0-3.65.42-4.73,1.27-1.08.85-1.62,2.08-1.62,3.69,0,1.47.41,2.58,1.22,3.34.82.75,2.2,1.28,4.15,1.59l2.42.36c2.09.3,3.62.91,4.58,1.83.96.92,1.43,2.23,1.43,3.94,0,1.93-.61,3.41-1.83,4.43-1.22,1.02-2.98,1.53-5.27,1.53s-4.1-.48-5.48-1.45-2.19-2.34-2.43-4.11h.6c.28,1.59,1.05,2.81,2.31,3.66,1.26.85,2.93,1.27,5,1.27,4.27,0,6.41-1.77,6.41-5.32Z"
							/>
							<path class="cls-4" d="m383.03,370.51h8.67v.6h-8.67v-.6Z" />
							<path
								class="cls-4"
								d="m229.92,390.57h13.14v.63h-12.48v9.49h11.88v.63h-11.88v10.18h12.72l-.21.63h-13.17v-21.58Z"
							/>
							<path class="cls-4" d="m249.63,390.57h.66v21.58h-.66v-21.58Z" />
							<path
								class="cls-4"
								d="m258.21,390.57h.76l13.75,20.67v-20.67h.67v21.58h-.82l-13.69-20.61v20.61h-.66v-21.58Z"
							/>
							<path
								class="cls-4"
								d="m294.38,406.68c0-1.57-.42-2.74-1.25-3.51-.84-.76-2.27-1.31-4.31-1.63l-2.45-.39c-2.01-.34-3.48-.95-4.4-1.81-.92-.87-1.38-2.1-1.38-3.69,0-1.79.61-3.18,1.84-4.16,1.23-.98,2.95-1.46,5.17-1.46,2.01,0,3.59.4,4.73,1.21,1.14.81,1.96,2.11,2.46,3.9l-.6.15c-.44-1.63-1.19-2.81-2.24-3.54-1.05-.72-2.5-1.09-4.35-1.09-2.07,0-3.65.42-4.73,1.27-1.08.85-1.62,2.08-1.62,3.69,0,1.47.41,2.58,1.22,3.34.82.75,2.2,1.28,4.15,1.59l2.42.36c2.09.3,3.62.91,4.58,1.83.96.92,1.44,2.23,1.44,3.94,0,1.93-.61,3.41-1.83,4.43-1.22,1.02-2.98,1.53-5.27,1.53s-4.1-.48-5.48-1.45c-1.38-.97-2.19-2.34-2.43-4.11h.6c.28,1.59,1.05,2.81,2.31,3.66,1.26.85,2.93,1.27,5,1.27,4.27,0,6.41-1.77,6.41-5.32Z"
							/>
							<path
								class="cls-4"
								d="m307.16,391.21h-7.67v-.63h16.01v.63h-7.67v20.94h-.67v-20.94Z"
							/>
							<path class="cls-4" d="m321.45,390.57h.67v21.58h-.67v-21.58Z" />
							<path
								class="cls-4"
								d="m330.03,390.57h13.14v.63h-12.48v9.49h11.88v.63h-11.88v10.18h12.72l-.21.63h-13.17v-21.58Z"
							/>
							<path
								class="cls-4"
								d="m365.87,409.97c-.85.83-1.91,1.48-3.2,1.95s-2.66.71-4.11.71c-3.08,0-5.46-.97-7.13-2.92-1.67-1.94-2.51-4.69-2.51-8.23,0-2.22.34-4.19,1.03-5.91.68-1.72,1.71-3.08,3.08-4.06,1.37-.99,3.07-1.48,5.11-1.48,3.93,0,6.36,1.91,7.28,5.74l-.6.15c-.91-3.5-3.14-5.26-6.71-5.26-1.95,0-3.56.47-4.8,1.41s-2.18,2.22-2.78,3.84c-.6,1.62-.91,3.47-.91,5.54,0,3.4.78,6.01,2.33,7.83,1.55,1.81,3.76,2.72,6.62,2.72,1.43,0,2.71-.2,3.84-.6,1.13-.4,2.06-.95,2.81-1.63v-7.01h-6.56v-.63h7.22v7.86Z"
							/>
						</g>
					</g>
					<g class="cls-7">
						<g class="cls-9">
							<path
								class="cls-2"
								d="m264.28,394.02c11.68-2.48,20.46-9.47,24.14-16.27l-.09,9.57,18.62-3.96-.04-88.4-18.62,3.96v14.15c-4.69-6.25-16.61-12.39-31.17-9.29-27.26,5.79-41.78,31.51-35.81,59.59,4.82,22.67,23.16,34.87,42.97,30.66Z"
							/>
							<path
								class="cls-2"
								d="m264.57,377.43c-12.83,2.73-22.94-3.83-26.02-18.32-3.82-17.99,6.28-33.54,22.11-36.9,13-2.76,23.1,3.8,26.18,18.29,3.82,17.99-6.28,33.54-22.28,36.93Z"
							/>
							<polygon
								class="cls-2"
								points="325.77 414.09 399.43 398.44 399.29 378.97 345.13 390.48 345.28 286.35 325.78 290.5 325.77 414.09"
							/>
							<path
								class="cls-2"
								d="m326.59,277.1l18.7-3.98-.15-43.38c.13-17.82,9.77-29.3,20.65-31.61,3.06-.65,5.89-.72,9.16-.35l-.17-20.07c-2.49,0-4.73.3-7.11.8-10.03,2.14-19.56,9.14-22.56,20.1l.13-14.44-18.7,3.98.05,88.94Z"
							/>
							<path
								class="cls-2"
								d="m257.76,293.41c43.63-8.48,59.25-42.4,51.93-80.02-.26-1.34-.55-2.84-.95-3.98l-60.02,11.67-.27,19.14,42.8-8.32c-.82,21.67-13.43,38.01-35.5,42.29-25.08,4.88-41.9-8.51-46.29-31.08-5.04-25.91,10.22-50.05,36.97-55.25,15.88-3.09,28.41,1.59,36.81,11.76l21.73-4.22c-11.18-20.04-33.13-32.08-60.54-26.75-42.8,8.32-61.59,43.72-54.51,80.17,6.01,30.93,32.72,51.41,67.83,44.59Z"
							/>
						</g>
					</g>
				</g>
			</g>
		</g>
	</g>
</svg>
