<svg xmlns="http://www.w3.org/2000/svg" id="svg42" version="1.1" viewBox="0 0 390.94 390.93">
	<defs id="defs19">
		<clipPath id="clippath"><path id="path2" d="M0 0h595.28v595.28H0Z" class="cls-1" /></clipPath>
		<clipPath id="clippath-1"><path id="path5" d="M0 0h595.28v595.28H0Z" class="cls-1" /></clipPath>
		<clipPath id="clippath-2"><path id="path8" d="M0 0h595.28v595.28H0Z" class="cls-1" /></clipPath>
		<clipPath id="clippath-3">
			<path id="path11" d="M105.32 145.63h384.63v325.28H105.32Z" class="cls-1" />
		</clipPath>
		<clipPath id="clippath-4">
			<path id="path14" d="M174.73 155.88h230.93v260.45H174.73Z" class="cls-1" />
		</clipPath>
		<style id="style17">
			.cls-1,
			.cls-2 {
				fill: none;
			}
			.cls-2 {
				stroke: #e94c21;
				stroke-width: 2px;
			}
		</style>
	</defs>
	<g id="g40" style="isolation: isolate" transform="translate(-102.17 -95.57)">
		<g id="Ebene_1" clip-path="url(#clippath)">
			<g id="g23" clip-path="url(#clippath-1)">
				<path
					id="path21"
					fill="#fff"
					d="M297.64 486.5c107.95 0 195.47-87.51 195.47-195.47S405.6 95.57 297.64 95.57s-195.47 87.51-195.47 195.46S189.68 486.5 297.64 486.5"
				/>
			</g>
			<path
				id="path25"
				fill="#e94c21"
				d="M149.25 192.81c1.43-2.08 3.8-2.77 5.6-2.26l-.88 1.27c-1.28-.19-2.73.42-3.64 1.74-1.34 1.95-.83 4.44 1.11 5.77 1.94 1.33 4.44.93 5.79-1.03 1.24-1.8.84-3.94-.78-5.29l-2.25 3.27-1.08-.74 3.06-4.45c3.37 1.95 3.9 5.4 2.14 7.95-1.77 2.57-5.11 3.19-7.66 1.43-2.56-1.76-3.17-5.1-1.41-7.67zm9.92-13.38 4.08-4.68.99.87-3.17 3.63 2.43 2.12 2.57-2.95 1 .87-2.57 2.95 2.61 2.28 3.16-3.63 1 .87-4.08 4.68-8.03-7zm11.51-12.88 1.02-.95 6.38 6.81 3.76-3.52.9.96-4.77 4.47-7.28-7.77zm12.62-11.48 1.1-.86 6.57 8.38-1.1.86zm22.76-3.42-9.92-3.52 4.45 7-1.18.75-5.72-8.98 1.03-.65 9.92 3.52-4.45-7 1.16-.74 5.72 8.98zm9.94-18.2c2.27-1.08 4.68-.5 5.98.83l-1.39.67c-1.01-.8-2.57-1-4.02-.31-2.14 1.02-2.93 3.43-1.92 5.55 1.01 2.13 3.39 3.02 5.53 2 1.98-.94 2.69-3 1.96-4.97l-3.59 1.71-.56-1.18 4.87-2.33c1.94 3.38.68 6.62-2.12 7.96-2.82 1.34-6.02.21-7.35-2.59-1.34-2.8-.21-6 2.61-7.35zm15.19-6.68 5.86-2.05.44 1.25-4.54 1.59 1.07 3.04 3.69-1.29.44 1.25-3.7 1.29 1.15 3.27 4.54-1.59.44 1.25-5.86 2.05-3.52-10.05zm26.51 2.97-8.2-6.6 1.89 8.08-1.36.32-2.42-10.37 1.18-.28 8.2 6.6-1.89-8.08 1.34-.31 2.42 10.37-1.17.27zm12.12-5.37c.26 1.16 1.49 1.56 2.49 1.43 1.1-.14 1.92-.84 1.8-1.82-.1-.83-.7-1.35-1.72-1.59l-1.53-.36c-1.71-.38-2.61-1.19-2.81-2.68-.21-1.73 1.03-2.94 2.88-3.17 2.14-.26 3.38 1.08 3.69 2.45l-1.37.17c-.4-1.07-1.32-1.42-2.19-1.32-1.01.12-1.73.77-1.63 1.65.11.89.66 1.28 1.73 1.52l1.42.32c1.68.38 2.72 1.19 2.91 2.77.22 1.79-1.04 3.09-3.01 3.33-2.22.27-3.79-.95-4.05-2.56l1.38-.17zm15.95-9.62 3.49-.05c1.98-.03 3.2 1.27 3.22 2.77.02 1.05-.44 1.76-1.11 2.19 1.04.36 1.86 1.1 1.88 2.52.03 1.77-1.36 3.13-3.52 3.16l-3.81.06-.16-10.65zm3.56 4.52c1.14-.02 1.8-.73 1.79-1.68-.01-.9-.7-1.65-1.84-1.64l-2.1.03.05 3.31 2.1-.03zm.45 4.81c1.42-.02 2.13-.78 2.12-1.83-.02-1.03-.75-1.8-2.16-1.78l-2.49.04.05 3.61zm14.52-9.4 6.19.51-.11 1.32-4.8-.39-.26 3.21 3.9.32-.11 1.32-3.9-.32-.28 3.45 4.8.39-.11 1.32-6.19-.51.87-10.61zm17.3 1.55 3 .58c3.21.62 5.13 3.31 4.56 6.3-.58 2.99-3.37 4.77-6.58 4.15l-3-.58 2.02-10.46zm1.23 9.75c2.52.49 4.51-.87 4.95-3.14.44-2.27-.9-4.27-3.42-4.76l-1.63-.32-1.53 7.89 1.63.32zm18.12-5.7 1.34.38-2.91 10.24-1.34-.38zm16.13 16.46-2.98-10.09-3.05 7.71-1.3-.51 3.91-9.91 1.13.45 2.98 10.1 3.05-7.71 1.28.51-3.91 9.91-1.12-.44zm20.61-2.65c2.21 1.21 3.14 3.5 2.82 5.34l-1.35-.74c.05-1.29-.69-2.67-2.1-3.44-2.08-1.14-4.5-.38-5.63 1.69s-.47 4.51 1.61 5.65c1.92 1.05 4 .43 5.18-1.32l-3.49-1.91.63-1.14 4.74 2.59c-1.6 3.55-4.97 4.43-7.7 2.93-2.74-1.5-3.69-4.76-2.2-7.48 1.49-2.72 4.75-3.67 7.49-2.18zm11.49 19.46c-2.01-1.42-2.45-3.76-.92-5.93l3.75-5.32 1.14.8-3.77 5.35c-1.1 1.56-.8 3.07.56 4.03 1.36.96 2.88.73 3.98-.83l3.77-5.35 1.14.8-3.75 5.32c-1.53 2.17-3.89 2.55-5.9 1.13zm18.12 13.7.66-10.5-5.5 6.2-1.04-.93 7.07-7.97.91.81-.66 10.51 5.51-6.21 1.03.92-7.07 7.97-.9-.8zm20.28 4.54c1.66 1.89 1.76 4.36.83 5.98l-1.02-1.16c.49-1.19.26-2.75-.8-3.95-1.57-1.78-4.1-1.89-5.87-.33-1.77 1.56-1.98 4.08-.42 5.86 1.45 1.64 3.62 1.77 5.32.53l-2.63-2.98.98-.86 3.57 4.05c-2.72 2.79-6.18 2.46-8.23.13-2.06-2.34-1.84-5.73.49-7.78s5.72-1.83 7.78.51zm10.66 12.73 3.57 5.08-1.08.76-2.77-3.94-2.64 1.85 2.25 3.21-1.08.76-2.25-3.21-2.84 1.99 2.77 3.94-1.08.76-3.57-5.08zm4.44 26.26 4.02-9.73-7.22 4.09-.69-1.21 9.27-5.25.6 1.06-4.02 9.73 7.22-4.09.68 1.2-9.27 5.25-.59-1.04zm20.45 17.96 1.16 3.44c.63 1.86-.11 3.39-1.77 3.95-1.48.5-2.79-.11-3.54-1.58l-3.3 5.43-.56-1.66 3.29-5.42-.33-.98-4.59 1.54-.44-1.32 10.09-3.39zm-3.22 4.74c.39 1.15 1.15 1.67 2.16 1.33 1.02-.34 1.33-1.22.94-2.38l-.66-1.96-3.1 1.04.66 1.96zm9.96 17.1.25 1.13-9.38 6.9-.31-1.42 2.74-2-1.07-4.85-3.33-.66-.31-1.41zm-5.6 3.8 3.88-2.83-4.71-.94.83 3.78zm1.18 13.82c-1.17.25-1.58 1.47-1.47 2.47.12 1.1.82 1.93 1.8 1.82.83-.09 1.36-.68 1.61-1.7l.38-1.52c.4-1.7 1.23-2.59 2.71-2.77 1.73-.19 2.92 1.07 3.13 2.92.23 2.15-1.12 3.37-2.5 3.65l-.15-1.37c1.07-.39 1.44-1.3 1.35-2.17-.11-1.01-.75-1.74-1.63-1.65-.89.1-1.29.64-1.55 1.71l-.34 1.41c-.41 1.67-1.23 2.7-2.81 2.87-1.79.2-3.08-1.08-3.29-3.05-.24-2.22 1-3.78 2.61-4.01zm1.61 16.75c-1.18.13-1.71 1.31-1.7 2.32.01 1.11.62 2 1.62 1.99.84-.01 1.42-.54 1.77-1.54l.52-1.48c.56-1.66 1.47-2.46 2.97-2.5 1.74-.02 2.81 1.34 2.83 3.2.03 2.16-1.44 3.24-2.84 3.4l-.02-1.38c1.11-.28 1.56-1.16 1.55-2.03-.01-1.02-.58-1.81-1.46-1.8-.9.01-1.34.51-1.71 1.55l-.48 1.37c-.56 1.63-1.48 2.57-3.07 2.59-1.8.02-2.96-1.37-2.98-3.35-.03-2.23 1.36-3.66 2.98-3.74zm7.7 16.69-.1 1.39-10.62-.78.1-1.39zm-8.85 12.59c-1.19-.08-1.92.98-2.09 1.97-.19 1.09.25 2.08 1.22 2.25.83.14 1.49-.27 2.02-1.19l.78-1.36c.86-1.53 1.9-2.15 3.38-1.91 1.71.3 2.51 1.84 2.19 3.67-.37 2.13-2.01 2.92-3.41 2.82l.24-1.36c1.14-.08 1.75-.85 1.89-1.71.17-1-.24-1.88-1.11-2.03-.89-.15-1.42.26-1.96 1.21l-.72 1.26c-.85 1.5-1.93 2.25-3.49 1.98-1.77-.31-2.66-1.89-2.32-3.84.38-2.2 2.01-3.35 3.62-3.13l-.24 1.38zm2.08 18.83-7.95-2.32.39-1.34 10.22 2.99-.36 1.22-6.21 2.31 3.99 5.29-.35 1.21-10.22-2.99.39-1.32 7.95 2.32-3.88-5.13zm-15.48 20.37c.98-2.25 3.19-3.16 5.62-2.1l5.97 2.6-.56 1.28-6-2.61c-1.75-.76-3.17-.17-3.83 1.36-.67 1.53-.13 2.97 1.61 3.73l6 2.61-.56 1.28-5.97-2.6c-2.43-1.06-3.28-3.29-2.29-5.55zm-3.76 15.61c-1.09-.48-2.14.28-2.63 1.15-.54.97-.46 2.05.4 2.53.73.41 1.5.24 2.3-.44l1.19-1.01c1.32-1.15 2.51-1.39 3.82-.67 1.51.85 1.75 2.57.84 4.19-1.06 1.88-2.88 2.08-4.16 1.51l.68-1.2c1.1.31 1.93-.22 2.36-.98.5-.89.41-1.85-.36-2.29-.79-.44-1.42-.23-2.25.49l-1.1.95c-1.3 1.12-2.57 1.48-3.96.7-1.57-.88-1.87-2.67-.9-4.4 1.1-1.95 3.02-2.48 4.46-1.74l-.69 1.22zm-8.45 14.58c-1.04-.59-2.15.06-2.73.88-.64.91-.67 1.99.14 2.56.69.49 1.47.39 2.33-.21l1.29-.89c1.43-1.01 2.64-1.13 3.87-.28 1.42 1 1.48 2.74.41 4.25-1.25 1.76-3.07 1.78-4.29 1.08l.8-1.13c1.06.42 1.94-.02 2.45-.73.59-.83.6-1.8-.13-2.31-.73-.52-1.39-.38-2.29.25l-1.19.83c-1.41.98-2.71 1.21-4.01.29-1.47-1.04-1.59-2.85-.44-4.46 1.29-1.82 3.25-2.16 4.61-1.28l-.8 1.14zm-3.54 18.26-4.08 4.68-.99-.87 3.17-3.63-2.43-2.12-2.57 2.95-.99-.87 2.57-2.95-2.61-2.28-3.17 3.63-.99-.87 4.08-4.68 8.02 7zm-24.46 10.56 10.4 1.63-5.67-6.05 1.02-.95 7.28 7.77-.89.83-10.4-1.63 5.67 6.05-1.01.94-7.28-7.77zm-7.87 10.66c-.8-.88-2.07-.61-2.87-.01-.89.66-1.25 1.68-.66 2.48.5.67 1.27.83 2.28.53l1.5-.45c1.67-.52 2.86-.26 3.76.94 1.04 1.39.56 3.06-.93 4.17-1.73 1.29-3.47.74-4.42-.3l1.11-.83c.88.73 1.86.58 2.55.06.82-.61 1.12-1.53.6-2.24-.54-.72-1.21-.79-2.26-.47l-1.39.42c-1.65.5-2.95.31-3.9-.97-1.08-1.44-.63-3.2.96-4.38 1.79-1.34 3.77-1.05 4.78.21l-1.12.83zm-9.09 16.13-1.19.72-5.5-9.12 1.19-.72zm-11.21 6.75-3.14 1.54c-1.78.87-3.44.22-4.1-1.13-.46-.94-.36-1.78.06-2.46-1.09.12-2.15-.19-2.78-1.47-.78-1.59-.11-3.41 1.83-4.36l3.42-1.68 4.7 9.55zm-7.62-6.72c-1.28.63-1.59 1.62-1.13 2.56.46.93 1.45 1.31 2.71.69l2.23-1.1-1.6-3.24-2.22 1.09zm2.46 4.16c-1.02.5-1.32 1.43-.9 2.28.4.81 1.34 1.2 2.36.69l1.88-.93-1.46-2.97zm-11.57 10.5-1.3.49-3.3-8.73-4.81 1.82-.47-1.24 6.12-2.31 3.76 9.96zm-16.24 5.92-6.01 1.56-.33-1.28 4.66-1.21-.81-3.12-3.79.98-.33-1.28 3.79-.98-.87-3.35-4.66 1.21-.33-1.28 6.01-1.56zm-16.69 4.21-3.58.57c-1.94.31-3.33-.67-3.6-2.4-.25-1.54.57-2.73 2.14-3.23l-4.81-4.15 1.73-.28 4.81 4.14 1.02-.16-.76-4.78 1.38-.22 1.68 10.52zm-4.14-3.96c-1.2.19-1.84.85-1.67 1.91.17 1.07.99 1.51 2.19 1.32l2.04-.33-.52-3.23zm-26.66 7.41h-1.39l.09-9.34-5.15-.05v-1.32l6.55.06zm-17.15-.39-6.17-.66.14-1.31 4.79.51.34-3.21-3.89-.41.14-1.31 3.89.41.37-3.45-4.79-.51.14-1.31 6.17.66-1.12 10.59zm-17.26-1.98-1.36-.3.97-4.44-5.7-1.25-.97 4.44-1.36-.3 2.28-10.4 1.36.3-1.03 4.69 5.7 1.25 1.03-4.69 1.36.3zm-20.08-4.66-3.44-1.16c-1.86-.63-2.63-2.14-2.07-3.8.5-1.48 1.77-2.16 3.4-1.86l-2.32-5.92 1.66.56 2.33 5.9.98.33 1.55-4.59 1.32.45-3.42 10.09zm-1.82-5.43c-1.15-.39-2.02-.1-2.37.91-.35 1.02.17 1.8 1.32 2.19l1.96.66 1.05-3.1zm-15.84-.79-5.65-2.57.54-1.2 4.38 1.99 1.33-2.94-3.56-1.62.55-1.2 3.56 1.62 1.43-3.16-4.38-1.99.55-1.2 5.65 2.57zm-15.66-7.28-3.14-1.82c-1.7-.99-2.16-2.62-1.27-4.14.78-1.35 2.17-1.76 3.7-1.15l-1.1-6.26 1.52.88 1.11 6.25.9.52 2.43-4.19 1.21.7-5.35 9.21zm-.71-5.68c-1.05-.61-1.96-.5-2.5.42-.54.93-.19 1.79.86 2.41l1.79 1.04 1.64-2.83zm-9.72-13.18c.5.35.61 1.06.26 1.56-.35.49-1.05.63-1.56.28-.5-.35-.6-1.07-.26-1.56.35-.5 1.05-.63 1.56-.28zm-13.04-2.02c.48.38.55 1.09.16 1.57-.38.47-1.09.57-1.57.18-.48-.38-.54-1.1-.16-1.57.38-.48 1.09-.57 1.57-.18zm-12.11-3.79-1.02-.95 7.26-7.79 1.02.95zm-6.9-21.96-1.95 10.35 6.23-5.48.92 1.05-7.99 7.04-.8-.91 1.95-10.34-6.23 5.48-.91-1.04 7.99-7.04.79.9zm-12.32-15.59-3.19 10.03 6.85-4.68.79 1.15-8.79 6.01-.69-1 3.19-10.03-6.85 4.68-.78-1.14 8.79-6.01zm-15.91-4.9-3-5.44 1.16-.64 2.32 4.22 2.83-1.56-1.89-3.43 1.16-.64 1.89 3.43 3.04-1.67-2.32-4.22 1.16-.64 3 5.44-9.33 5.14zm-1.38-26.67-5.16 9.18 7.65-3.2.54 1.29-9.83 4.1-.47-1.12 5.16-9.18-7.65 3.2-.53-1.27 9.83-4.1.46 1.11zm-14.62-8.29-.95-3.36c-.54-1.9.4-3.42 1.84-3.83 1.01-.29 1.82-.03 2.4.5.08-1.1.58-2.08 1.95-2.47 1.7-.48 3.37.51 3.96 2.59l1.04 3.67-10.25 2.91zm3.45-4.61c-.31-1.1-1.17-1.55-2.08-1.3-.87.25-1.42 1.1-1.11 2.2l.57 2.02 3.19-.91-.57-2.02zm4.53-1.68c-.39-1.37-1.31-1.86-2.32-1.57-1 .28-1.55 1.19-1.17 2.54l.68 2.4 3.48-.99-.68-2.38zm-12.73-11.49-.27-1.37 10.45-2.04.27 1.37zm-2.38-12.85-.15-1.39 9.27-1.02-.56-5.11 1.31-.14.71 6.5-10.59 1.16zm-1.68-17.21v-3.06c0-3.27 2.28-5.67 5.32-5.67 3.04 0 5.32 2.4 5.33 5.67v3.06zm9.34-3.06c0-2.56-1.71-4.26-4.02-4.26-2.31 0-4.02 1.7-4.02 4.26v1.67h8.04zm2.1-19.77c-.3 2.44-2.16 3.94-4.79 3.61l-6.46-.79.17-1.38 6.49.8c1.89.23 3.08-.74 3.29-2.39.2-1.65-.72-2.88-2.61-3.12l-6.49-.8.17-1.38 6.46.79c2.63.32 4.08 2.22 3.78 4.66zm3.55-22.44-9.57 4.38 8.07 1.92-.32 1.36-10.36-2.47.28-1.18 9.57-4.38-8.07-1.92.32-1.34 10.36 2.47-.28 1.17zm-5.46-20.02c.89-2.36 3.03-3.6 4.89-3.54l-.54 1.45c-1.28.13-2.55 1.06-3.11 2.56-.84 2.22.26 4.51 2.46 5.33 2.21.83 4.54-.17 5.37-2.39.77-2.05-.13-4.03-2.03-4.95l-1.4 3.72-1.22-.46 1.9-5.05c3.74 1.09 5.08 4.3 3.99 7.21-1.1 2.92-4.19 4.32-7.1 3.23-2.91-1.09-4.31-4.19-3.21-7.11zM146 221.14c-.26.56-.93.79-1.49.53-.54-.25-.81-.92-.55-1.48.26-.56.95-.78 1.49-.53.56.26.81.92.55 1.48z"
			/>
			<g id="g37" clip-path="url(#clippath-2)">
				<g id="g29" clip-path="url(#clippath-3)" opacity=".6">
					<path
						id="path27"
						fill="#006b8e"
						d="M275.78 168.9h9v.43h-8.55v6.5h8.13v.43h-8.13v6.97h8.71l-.15.43h-9.02v-14.78zm13.58 0h.46v14.78h-.46zm5.94 0h.52l9.42 14.16V168.9h.46v14.78h-.56l-9.37-14.11v14.11h-.46V168.9Zm15.85 0h9v.43h-8.55v6.5h8.13v.43h-8.13v6.97h8.71l-.14.43h-9.02v-14.78zm-109.17 25.83h7.34c4.37 0 6.56 1.92 6.56 5.77 0 3.02-1.36 4.88-4.08 5.56l4.74 10.24h-.73l-4.65-10.12c-.52.1-1.18.15-1.96.15h-6.56v9.97h-.66zm7.25 10.97c2.03 0 3.54-.42 4.5-1.27.97-.85 1.45-2.16 1.45-3.93s-.48-3.07-1.45-3.9c-.97-.83-2.48-1.24-4.53-1.24h-6.56v10.33h6.59zm21.24-10.97h.76l8.49 21.57h-.76l-2.78-7.13h-10.7l-2.78 7.13h-.73l8.49-21.57zm5.47 13.81-5.11-13.11-5.11 13.11h10.21zm22.81 2.3c0-1.57-.42-2.74-1.25-3.5-.83-.76-2.27-1.31-4.31-1.63l-2.45-.39c-2.01-.34-3.48-.95-4.4-1.81-.92-.87-1.38-2.09-1.38-3.69 0-1.79.61-3.18 1.84-4.15 1.23-.98 2.95-1.47 5.17-1.47 2.01 0 3.59.4 4.73 1.21 1.14.81 1.96 2.11 2.46 3.9l-.6.15c-.44-1.63-1.19-2.81-2.24-3.54-1.05-.73-2.5-1.09-4.35-1.09-2.07 0-3.65.42-4.73 1.27-1.08.85-1.62 2.07-1.62 3.69 0 1.47.41 2.58 1.22 3.34.81.76 2.2 1.28 4.15 1.59l2.42.36c2.09.3 3.62.91 4.58 1.83s1.44 2.23 1.44 3.94c0 1.93-.61 3.41-1.83 4.43-1.22 1.02-2.98 1.53-5.27 1.53-2.29 0-4.1-.48-5.48-1.45-1.38-.97-2.19-2.34-2.43-4.11h.6c.28 1.59 1.05 2.81 2.31 3.66 1.26.85 2.93 1.27 5 1.27 4.27 0 6.41-1.77 6.41-5.32zm21 0c0-1.57-.42-2.74-1.25-3.5-.83-.76-2.27-1.31-4.31-1.63l-2.45-.39c-2.01-.34-3.48-.95-4.4-1.81-.92-.87-1.38-2.09-1.38-3.69 0-1.79.61-3.18 1.84-4.15 1.23-.98 2.95-1.47 5.17-1.47 2.01 0 3.59.4 4.73 1.21 1.14.81 1.96 2.11 2.46 3.9l-.6.15c-.44-1.63-1.19-2.81-2.24-3.54-1.05-.73-2.5-1.09-4.35-1.09-2.07 0-3.65.42-4.73 1.27-1.08.85-1.62 2.07-1.62 3.69 0 1.47.41 2.58 1.22 3.34.81.76 2.2 1.28 4.15 1.59l2.42.36c2.09.3 3.62.91 4.58 1.83s1.44 2.23 1.44 3.94c0 1.93-.61 3.41-1.83 4.43-1.22 1.02-2.98 1.53-5.27 1.53-2.29 0-4.1-.48-5.48-1.45-1.38-.97-2.19-2.34-2.43-4.11h.6c.28 1.59 1.05 2.81 2.31 3.66 1.26.85 2.93 1.27 5 1.27 4.27 0 6.41-1.77 6.41-5.32zm7.68-16.11h.66v21.57h-.66zm21.63 16.11c0-1.57-.42-2.74-1.25-3.5-.84-.77-2.27-1.31-4.31-1.63l-2.45-.39c-2.02-.34-3.48-.95-4.4-1.81-.92-.87-1.38-2.09-1.38-3.69 0-1.79.61-3.18 1.84-4.15 1.23-.98 2.95-1.47 5.17-1.47 2.01 0 3.59.4 4.73 1.21 1.14.81 1.96 2.11 2.46 3.9l-.6.15c-.44-1.63-1.19-2.81-2.24-3.54-1.05-.73-2.5-1.09-4.35-1.09-2.07 0-3.65.42-4.73 1.27-1.08.85-1.62 2.07-1.62 3.69 0 1.47.41 2.58 1.22 3.34.81.76 2.2 1.28 4.15 1.59l2.42.36c2.09.3 3.62.91 4.58 1.83s1.43 2.23 1.43 3.94c0 1.93-.61 3.41-1.83 4.43-1.22 1.02-2.97 1.53-5.27 1.53-2.3 0-4.11-.48-5.48-1.45-1.38-.97-2.19-2.34-2.43-4.11h.6c.28 1.59 1.05 2.81 2.31 3.66 1.26.85 2.93 1.27 5 1.27 4.27 0 6.41-1.77 6.41-5.32zm7.68-16.11h.82l8.85 20.73 8.88-20.73h.79v21.57h-.63v-20.43l-8.73 20.43h-.6l-8.73-20.43v20.43h-.63v-21.57zm27.8 13.24c0 5.46 2.29 8.19 6.86 8.19s6.86-2.73 6.86-8.19v-13.23h.66v13.14c0 5.94-2.51 8.91-7.52 8.91s-7.52-2.97-7.52-8.91v-13.14h.67v13.23zm35.11 2.87c0-1.57-.42-2.74-1.25-3.5-.84-.77-2.27-1.31-4.31-1.63l-2.45-.39c-2.01-.34-3.48-.95-4.4-1.81-.92-.87-1.38-2.09-1.38-3.69 0-1.79.61-3.18 1.84-4.15 1.23-.98 2.95-1.47 5.17-1.47 2.01 0 3.59.4 4.73 1.21 1.14.81 1.96 2.11 2.46 3.9l-.6.15c-.44-1.63-1.19-2.81-2.24-3.54-1.05-.73-2.5-1.09-4.35-1.09-2.08 0-3.65.42-4.73 1.27-1.08.85-1.62 2.07-1.62 3.69 0 1.47.41 2.58 1.22 3.34.81.76 2.2 1.28 4.15 1.59l2.42.36c2.09.3 3.62.91 4.58 1.83s1.43 2.23 1.43 3.94c0 1.93-.61 3.41-1.83 4.43-1.22 1.02-2.98 1.53-5.27 1.53-2.29 0-4.1-.48-5.48-1.45-1.38-.97-2.19-2.34-2.43-4.11h.6c.28 1.59 1.05 2.81 2.31 3.66 1.26.85 2.93 1.27 5 1.27 4.27 0 6.41-1.77 6.41-5.32zm5.95-3.54h8.67v.6h-8.67ZM184.87 228h-7.67v-.63h16.01v.63h-7.67v20.94h-.67V228Zm14.3-.63h.66v10.06h13.81v-10.06h.67v21.57h-.67v-10.88h-13.81v10.88h-.66zm23.05 0h13.14v.63h-12.48v9.49h11.88v.63h-11.88v10.18h12.72l-.21.63h-13.17v-21.57zm20.05 16.8c-.76-1.69-1.13-3.71-1.13-6.04s.38-4.35 1.13-6.04c.76-1.69 1.83-2.99 3.22-3.9 1.39-.91 3.04-1.36 4.96-1.36s3.57.45 4.96 1.36c1.39.91 2.46 2.2 3.22 3.88.76 1.68 1.13 3.69 1.13 6.03 0 2.34-.38 4.38-1.13 6.07-.76 1.69-1.83 2.99-3.22 3.9-1.39.91-3.04 1.36-4.96 1.36s-3.57-.45-4.96-1.36c-1.39-.91-2.46-2.21-3.22-3.9zm15.74-.33c.69-1.59 1.04-3.5 1.04-5.71s-.35-4.12-1.04-5.71c-.69-1.59-1.68-2.81-2.96-3.67-1.28-.86-2.82-1.28-4.61-1.28-1.79 0-3.3.43-4.59 1.28-1.29.86-2.28 2.08-2.98 3.67-.69 1.59-1.04 3.5-1.04 5.71s.35 4.12 1.04 5.71c.7 1.59 1.69 2.81 2.98 3.67 1.29.86 2.82 1.28 4.59 1.28s3.33-.43 4.61-1.28c1.28-.86 2.27-2.08 2.96-3.67zm8.78-16.47h7.34c4.37 0 6.56 1.92 6.56 5.77 0 3.02-1.36 4.88-4.08 5.56l4.74 10.24h-.73l-4.65-10.12c-.52.1-1.18.15-1.96.15h-6.56v9.97h-.66zm7.25 10.97c2.03 0 3.54-.42 4.5-1.27.97-.85 1.45-2.16 1.45-3.93s-.48-3.07-1.45-3.9c-.97-.83-2.48-1.24-4.53-1.24h-6.56v10.33h6.59zm13.87-10.97h13.14v.63h-12.48v9.49h11.88v.63h-11.88v10.18h12.72l-.21.63H287.9v-21.57Zm26.29.63h-7.67v-.63h16.01v.63h-7.67v20.94h-.67zm14.29-.63h.67v21.57h-.67zm21.64 16.1c0-1.57-.42-2.74-1.25-3.5-.84-.77-2.27-1.31-4.31-1.63l-2.45-.39c-2.01-.34-3.48-.95-4.4-1.81-.92-.87-1.38-2.09-1.38-3.69 0-1.79.61-3.18 1.84-4.15 1.23-.98 2.95-1.47 5.17-1.47 2.01 0 3.59.4 4.73 1.21 1.14.81 1.96 2.11 2.46 3.9l-.6.15c-.44-1.63-1.19-2.81-2.24-3.54-1.05-.73-2.5-1.09-4.35-1.09-2.08 0-3.65.42-4.73 1.27-1.08.85-1.62 2.07-1.62 3.69 0 1.47.41 2.58 1.22 3.34.81.76 2.2 1.28 4.15 1.59l2.42.36c2.09.3 3.62.91 4.58 1.83s1.43 2.23 1.43 3.94c0 1.93-.61 3.41-1.83 4.43-1.22 1.02-2.98 1.53-5.27 1.53-2.29 0-4.1-.48-5.48-1.45-1.38-.97-2.19-2.34-2.43-4.11h.6c.28 1.59 1.05 2.81 2.31 3.66 1.26.85 2.93 1.27 5 1.27 4.27 0 6.41-1.77 6.41-5.32zm15.77-16.01c-2.66 0-4.73.94-6.21 2.81-1.48 1.87-2.22 4.49-2.22 7.86s.75 5.96 2.25 7.84 3.58 2.83 6.24 2.83c2.03 0 3.7-.59 5-1.78 1.3-1.19 2.11-2.86 2.43-5.02h.6c-.3 2.34-1.16 4.16-2.58 5.47-1.42 1.31-3.26 1.96-5.51 1.96-1.89 0-3.52-.45-4.88-1.36-1.36-.91-2.41-2.2-3.14-3.88-.74-1.68-1.1-3.68-1.1-6s.36-4.41 1.09-6.1c.73-1.69 1.77-2.99 3.13-3.9 1.36-.91 2.99-1.36 4.88-1.36 2.07 0 3.79.59 5.14 1.77 1.35 1.18 2.26 2.89 2.72 5.12l-.6.15c-.99-4.27-3.39-6.41-7.22-6.41zm14.87-.09h.67v10.06h13.81v-10.06h.67v21.57h-.67v-10.88h-13.81v10.88h-.67zm23.05 0h13.14v.63h-12.48v9.49h11.88v.63h-11.88v10.18h12.72l-.21.63h-13.17v-21.57zm-234.36 45.87c0 5.46 2.29 8.19 6.86 8.19s6.86-2.73 6.86-8.19v-13.23h.67v13.14c0 5.94-2.51 8.91-7.52 8.91s-7.52-2.97-7.52-8.91v-13.14h.66v13.23zM191.64 260h.76l13.75 20.67V260h.67v21.57H206l-13.69-20.61v20.61h-.66V260Zm28.8.64h-7.67v-.63h16.01v.63h-7.67v20.94h-.67zm14.29-.64h13.14v.63h-12.48v9.49h11.88v.63h-11.88v10.18h12.72l-.21.63h-13.17v-21.57zm19.7 0h7.34c4.37 0 6.56 1.92 6.56 5.77 0 3.02-1.36 4.88-4.08 5.56l4.74 10.24h-.73l-4.65-10.12c-.52.1-1.18.15-1.96.15h-6.56v9.97h-.66zm7.25 10.97c2.03 0 3.54-.42 4.5-1.27.97-.85 1.45-2.16 1.45-3.93s-.48-3.07-1.45-3.9c-.97-.83-2.48-1.24-4.53-1.24h-6.56v10.33h6.59zm26.81 5.14c0-1.57-.42-2.74-1.25-3.5-.83-.76-2.27-1.31-4.31-1.63l-2.45-.39c-2.01-.34-3.48-.95-4.4-1.81-.92-.87-1.38-2.09-1.38-3.69 0-1.79.61-3.18 1.84-4.15 1.23-.98 2.95-1.47 5.17-1.47 2.01 0 3.59.4 4.73 1.21 1.14.81 1.96 2.11 2.46 3.9l-.6.15c-.44-1.63-1.19-2.81-2.24-3.54-1.05-.73-2.5-1.09-4.35-1.09-2.07 0-3.65.42-4.73 1.27-1.08.85-1.62 2.07-1.62 3.69 0 1.47.41 2.58 1.22 3.34.81.76 2.2 1.28 4.15 1.59l2.42.36c2.09.3 3.62.91 4.58 1.83s1.44 2.23 1.44 3.94c0 1.93-.61 3.41-1.83 4.43-1.22 1.02-2.98 1.53-5.27 1.53-2.29 0-4.1-.48-5.48-1.45-1.38-.97-2.19-2.34-2.43-4.11h.6c.28 1.59 1.05 2.81 2.31 3.66 1.26.85 2.93 1.27 5 1.27 4.27 0 6.41-1.77 6.41-5.32zm8.03-2.87c0 5.46 2.29 8.19 6.86 8.19s6.86-2.73 6.86-8.19v-13.23h.66v13.14c0 5.94-2.51 8.91-7.52 8.91s-7.52-2.97-7.52-8.91v-13.14h.66zm30.4-13.15c-2.66 0-4.73.94-6.21 2.81-1.48 1.87-2.22 4.49-2.22 7.86s.75 5.96 2.25 7.84 3.58 2.83 6.24 2.83c2.03 0 3.7-.59 5-1.78 1.3-1.19 2.11-2.86 2.43-5.02h.6c-.3 2.34-1.16 4.16-2.58 5.47-1.42 1.31-3.26 1.96-5.51 1.96-1.89 0-3.52-.45-4.88-1.36-1.36-.91-2.41-2.2-3.14-3.88-.74-1.68-1.1-3.68-1.1-6s.36-4.41 1.09-6.1c.73-1.69 1.77-2.99 3.13-3.9 1.36-.91 2.99-1.36 4.88-1.36 2.07 0 3.79.59 5.14 1.77 1.35 1.18 2.26 2.89 2.72 5.12l-.6.15c-.99-4.27-3.39-6.41-7.22-6.41zm14.87-.09h.67v10.06h13.81V260h.67v21.57h-.67v-10.88h-13.81v10.88h-.67zm23.6 13.24c0 5.46 2.29 8.19 6.86 8.19s6.86-2.73 6.86-8.19v-13.23h.66v13.14c0 5.94-2.51 8.91-7.52 8.91s-7.52-2.97-7.52-8.91v-13.14h.67v13.23zM387.57 260h.76l13.75 20.67V260h.67v21.57h-.82l-13.69-20.61v20.61h-.67zm39.19 19.4c-.85.83-1.91 1.48-3.2 1.95-1.29.47-2.66.71-4.11.71-3.08 0-5.46-.97-7.13-2.92-1.67-1.94-2.51-4.69-2.51-8.23 0-2.22.34-4.19 1.03-5.91.68-1.72 1.71-3.08 3.08-4.06 1.37-.99 3.07-1.48 5.11-1.48 3.93 0 6.36 1.91 7.28 5.74l-.6.15c-.91-3.5-3.14-5.26-6.71-5.26-1.95 0-3.56.47-4.8 1.4-1.25.94-2.18 2.22-2.78 3.84-.6 1.62-.91 3.47-.91 5.54 0 3.4.78 6.01 2.33 7.83 1.55 1.81 3.76 2.72 6.62 2.72 1.43 0 2.71-.2 3.84-.6 1.13-.4 2.06-.95 2.81-1.63v-7.01h-6.56v-.63h7.22v7.86zm-230.68 20.06h.5l5.34 14.28 5.34-14.28h.48l-5.55 14.78h-.56zm15.47 11.5c-.52-1.16-.78-2.54-.78-4.14 0-1.6.26-2.98.78-4.14.52-1.16 1.25-2.05 2.2-2.67.95-.62 2.08-.93 3.39-.93s2.44.31 3.39.93c.95.62 1.69 1.51 2.2 2.66.52 1.15.78 2.53.78 4.13s-.26 3-.78 4.16c-.52 1.16-1.25 2.05-2.2 2.67-.95.62-2.08.93-3.39.93s-2.44-.31-3.39-.93c-.95-.62-1.69-1.51-2.2-2.67zm10.78-.23c.48-1.09.71-2.39.71-3.91s-.24-2.82-.71-3.91c-.48-1.09-1.15-1.93-2.03-2.51-.88-.59-1.93-.88-3.16-.88-1.23 0-2.26.29-3.15.88-.88.59-1.56 1.42-2.04 2.51-.48 1.09-.71 2.39-.71 3.91s.24 2.82.71 3.91c.48 1.09 1.16 1.93 2.04 2.51.88.59 1.93.88 3.15.88s2.28-.29 3.16-.88c.88-.59 1.55-1.42 2.03-2.51zm6.07-11.27h.52l9.42 14.16v-14.16h.46v14.78h-.56l-9.38-14.12v14.12h-.46zm39.47 9.3c0-1.57-.42-2.74-1.25-3.51-.84-.76-2.27-1.31-4.31-1.63l-2.45-.39c-2.01-.34-3.48-.95-4.4-1.81-.92-.87-1.38-2.1-1.38-3.69 0-1.79.61-3.18 1.84-4.15 1.23-.98 2.95-1.47 5.17-1.47 2.01 0 3.59.4 4.73 1.21 1.14.81 1.96 2.11 2.46 3.9l-.6.15c-.44-1.63-1.19-2.81-2.24-3.54-1.05-.73-2.5-1.09-4.35-1.09-2.07 0-3.65.42-4.73 1.27-1.08.85-1.62 2.07-1.62 3.69 0 1.47.41 2.58 1.22 3.34.82.75 2.2 1.28 4.15 1.59l2.42.36c2.09.3 3.62.91 4.58 1.83s1.44 2.23 1.44 3.94c0 1.93-.61 3.41-1.83 4.43-1.22 1.02-2.98 1.53-5.27 1.53-2.29 0-4.1-.48-5.48-1.45-1.38-.97-2.19-2.34-2.43-4.11h.6c.28 1.59 1.05 2.81 2.31 3.66 1.26.85 2.93 1.27 5 1.27 4.27 0 6.41-1.77 6.41-5.32zm12.78-15.47h-7.67v-.63h16.01v.63h-7.67v20.94h-.67zm14.89 12.6c0 5.46 2.29 8.19 6.86 8.19s6.86-2.73 6.86-8.19v-13.23h.66v13.14c0 5.94-2.51 8.91-7.52 8.91s-7.52-2.97-7.52-8.91v-13.14h.66zm22.18-13.23h6.92c3.02 0 5.35.94 6.98 2.81 1.63 1.87 2.45 4.53 2.45 7.98s-.85 6.2-2.54 8.04c-1.69 1.83-4.16 2.75-7.4 2.75h-6.41v-21.57zm6.44 20.94c3.02 0 5.31-.86 6.87-2.57 1.56-1.71 2.34-4.22 2.34-7.52s-.75-5.86-2.24-7.6c-1.49-1.74-3.66-2.61-6.5-2.61h-6.25v20.31h5.77zm16.98-20.94h.67v21.57h-.67zm9.13 13.23c0 5.46 2.29 8.19 6.86 8.19s6.86-2.73 6.86-8.19v-13.23h.66v13.14c0 5.94-2.51 8.91-7.52 8.91s-7.52-2.97-7.52-8.91v-13.14h.67v13.23zm22.18-13.23h.82l8.85 20.73 8.88-20.73h.79v21.57h-.63V293.8l-8.73 20.43h-.6l-8.73-20.43v20.43h-.63v-21.57zm25.67 19.57h.48l-.79 3.79h-.39zm-224.67 13.06h7.34c4.37 0 6.56 1.92 6.56 5.77 0 3.02-1.36 4.88-4.08 5.56l4.74 10.24h-.73l-4.65-10.12c-.52.1-1.18.15-1.96.15h-6.56v9.97h-.66v-21.58zm7.25 10.97c2.03 0 3.54-.42 4.5-1.27.97-.85 1.45-2.16 1.45-3.93s-.48-3.07-1.45-3.9c-.97-.83-2.48-1.24-4.53-1.24h-6.56v10.33h6.59zm13.87-10.97h13.14v.63h-12.48v9.49h11.88v.63h-11.88v10.18h12.72l-.21.63h-13.17v-21.58zm19.71 0h12.36v.63h-11.69v9.73h11.03v.63h-11.03v10.58h-.66v-21.58zm18.7 0h13.14v.63h-12.48v9.49h11.88v.63h-11.88v10.18h12.72l-.21.63h-13.17v-21.58zm19.7 0h7.34c4.37 0 6.56 1.92 6.56 5.77 0 3.02-1.36 4.88-4.08 5.56l4.74 10.24h-.73l-4.65-10.12c-.52.1-1.18.15-1.96.15h-6.56v9.97h-.66v-21.58zm7.25 10.97c2.03 0 3.54-.42 4.5-1.27.97-.85 1.45-2.16 1.45-3.93s-.48-3.07-1.45-3.9c-.97-.83-2.48-1.24-4.53-1.24h-6.56v10.33h6.59zm13.87-10.97h13.14v.63h-12.48v9.49h11.88v.63h-11.88v10.18h12.72l-.21.63H273.8v-21.58zm19.7 0h.76l13.75 20.67v-20.67h.66v21.58h-.82l-13.69-20.61v20.61h-.66zm23.06 0h6.92c3.02 0 5.35.94 6.98 2.81 1.63 1.87 2.45 4.53 2.45 7.98s-.85 6.2-2.54 8.04c-1.69 1.83-4.16 2.75-7.4 2.75h-6.41zm6.44 20.94c3.02 0 5.31-.86 6.87-2.57 1.56-1.71 2.34-4.22 2.34-7.52s-.75-5.86-2.24-7.6c-1.49-1.74-3.66-2.61-6.5-2.61h-6.25v20.31h5.77zm22.63-20.94h.76l8.49 21.58h-.75l-2.78-7.13h-10.7l-2.78 7.13h-.72l8.49-21.58zm5.47 13.81-5.11-13.11-5.11 13.11h10.21zm9.82-13.81h7.34c4.37 0 6.56 1.92 6.56 5.77 0 3.02-1.36 4.88-4.08 5.56l4.74 10.24h-.73l-4.65-10.12c-.52.1-1.18.15-1.96.15h-6.56v9.97h-.67v-21.58zm7.25 10.97c2.03 0 3.54-.42 4.5-1.27.97-.85 1.45-2.16 1.45-3.93s-.48-3.07-1.45-3.9c-.97-.83-2.48-1.24-4.53-1.24h-6.56v10.33h6.59zm13.84-10.97h.67v21.58h-.67zm15.2 0h.76l8.49 21.58h-.75l-2.78-7.13h-10.7l-2.78 7.13h-.72l8.49-21.58zm5.47 13.81-5.11-13.11-5.11 13.11h10.21zm12.6-13.17h-7.67v-.63h16.01v.63h-7.67v20.94h-.67zM204.13 373.8c0 3.74 1.57 5.61 4.7 5.61s4.7-1.87 4.7-5.61v-9.07h.46v9c0 4.07-1.72 6.11-5.15 6.11-3.43 0-5.15-2.04-5.15-6.11v-9h.46v9.07zm15.26-9.06h.52l9.42 14.16v-14.16h.46v14.78h-.56l-9.38-14.12v14.12h-.46zm15.87 0H240c2.07 0 3.66.64 4.78 1.92 1.12 1.28 1.68 3.1 1.68 5.46s-.58 4.25-1.74 5.5c-1.16 1.26-2.85 1.88-5.07 1.88h-4.39v-14.78zm4.41 14.34c2.07 0 3.64-.59 4.71-1.76 1.07-1.17 1.6-2.89 1.6-5.15 0-2.26-.51-4.01-1.53-5.21-1.02-1.2-2.5-1.79-4.45-1.79h-4.28v13.91zm22.13-21.14h7.55c1.93 0 3.43.45 4.5 1.36 1.07.91 1.6 2.2 1.6 3.87 0 1.33-.36 2.44-1.07 3.34-.72.9-1.71 1.45-2.98 1.65 1.51.18 2.68.77 3.51 1.75.83.99 1.24 2.28 1.24 3.87 0 1.83-.58 3.25-1.74 4.25-1.16 1-2.81 1.5-4.94 1.5h-7.67v-21.58zm7.95 9.94c1.57 0 2.81-.41 3.7-1.24.9-.83 1.34-1.97 1.34-3.45 0-3.08-1.82-4.62-5.47-4.62h-6.86v9.31h7.28zm-.33 11c4.03 0 6.04-1.72 6.04-5.17 0-1.65-.5-2.93-1.5-3.84-1-.91-2.4-1.36-4.22-1.36h-7.28v10.36h6.95zm13.68-20.94h13.14v.63h-12.48v9.49h11.88v.63h-11.88v10.18h12.72l-.21.63H283.1v-21.58zm19.71 0h7.34c4.37 0 6.56 1.92 6.56 5.77 0 3.02-1.36 4.88-4.08 5.56l4.74 10.24h-.73l-4.65-10.12c-.52.1-1.18.15-1.96.15h-6.56v9.97h-.67v-21.58zm7.25 10.97c2.03 0 3.54-.42 4.5-1.27.97-.85 1.45-2.16 1.45-3.93s-.48-3.07-1.45-3.9c-.97-.83-2.48-1.24-4.53-1.24h-6.56v10.33h6.59zm14.23 2.26c0 5.46 2.29 8.19 6.86 8.19s6.86-2.73 6.86-8.19v-13.24h.66v13.14c0 5.94-2.51 8.91-7.52 8.91s-7.52-2.97-7.52-8.91v-13.14h.67v13.24zm21.82-13.23h12.36v.63h-11.69v9.73h11.03v.63h-11.03v10.58h-.67v-21.58zm30.97 16.1c0-1.57-.42-2.74-1.25-3.51-.84-.76-2.27-1.31-4.31-1.63l-2.45-.39c-2.01-.34-3.48-.95-4.4-1.81-.92-.87-1.38-2.1-1.38-3.69 0-1.79.61-3.18 1.84-4.16s2.95-1.46 5.17-1.46c2.01 0 3.59.4 4.73 1.21 1.14.81 1.96 2.11 2.46 3.9l-.6.15c-.44-1.63-1.19-2.81-2.24-3.54-1.05-.72-2.5-1.09-4.35-1.09-2.08 0-3.65.42-4.73 1.27-1.08.85-1.62 2.08-1.62 3.69 0 1.47.41 2.58 1.22 3.34.82.75 2.2 1.28 4.15 1.59l2.42.36c2.09.3 3.62.91 4.58 1.83s1.43 2.23 1.43 3.94c0 1.93-.61 3.41-1.83 4.43-1.22 1.02-2.98 1.53-5.27 1.53-2.29 0-4.1-.48-5.48-1.45-1.38-.97-2.19-2.34-2.43-4.11h.6c.28 1.59 1.05 2.81 2.31 3.66 1.26.85 2.93 1.27 5 1.27 4.27 0 6.41-1.77 6.41-5.32zm5.95-3.53h8.67v.6h-8.67zm-153.11 20.06h13.14v.63h-12.48v9.49h11.88v.63h-11.88v10.18h12.72l-.21.63h-13.17v-21.58zm19.71 0h.66v21.58h-.66zm8.58 0h.76l13.75 20.67v-20.67h.67v21.58h-.82l-13.69-20.61v20.61h-.66v-21.58zm36.17 16.11c0-1.57-.42-2.74-1.25-3.51-.84-.76-2.27-1.31-4.31-1.63l-2.45-.39c-2.01-.34-3.48-.95-4.4-1.81-.92-.87-1.38-2.1-1.38-3.69 0-1.79.61-3.18 1.84-4.16s2.95-1.46 5.17-1.46c2.01 0 3.59.4 4.73 1.21 1.14.81 1.96 2.11 2.46 3.9l-.6.15c-.44-1.63-1.19-2.81-2.24-3.54-1.05-.72-2.5-1.09-4.35-1.09-2.07 0-3.65.42-4.73 1.27-1.08.85-1.62 2.08-1.62 3.69 0 1.47.41 2.58 1.22 3.34.82.75 2.2 1.28 4.15 1.59l2.42.36c2.09.3 3.62.91 4.58 1.83s1.44 2.23 1.44 3.94c0 1.93-.61 3.41-1.83 4.43-1.22 1.02-2.98 1.53-5.27 1.53-2.29 0-4.1-.48-5.48-1.45-1.38-.97-2.19-2.34-2.43-4.11h.6c.28 1.59 1.05 2.81 2.31 3.66 1.26.85 2.93 1.27 5 1.27 4.27 0 6.41-1.77 6.41-5.32zm12.78-15.47h-7.67v-.63h16.01v.63h-7.67v20.94h-.67zm14.29-.64h.67v21.58h-.67zm8.58 0h13.14v.63h-12.48v9.49h11.88v.63h-11.88v10.18h12.72l-.21.63h-13.17v-21.58zm35.84 19.4c-.85.83-1.91 1.48-3.2 1.95-1.29.47-2.66.71-4.11.71-3.08 0-5.46-.97-7.13-2.92-1.67-1.94-2.51-4.69-2.51-8.23 0-2.22.34-4.19 1.03-5.91.68-1.72 1.71-3.08 3.08-4.06 1.37-.99 3.07-1.48 5.11-1.48 3.93 0 6.36 1.91 7.28 5.74l-.6.15c-.91-3.5-3.14-5.26-6.71-5.26-1.95 0-3.56.47-4.8 1.41-1.24.94-2.18 2.22-2.78 3.84-.6 1.62-.91 3.47-.91 5.54 0 3.4.78 6.01 2.33 7.83 1.55 1.81 3.76 2.72 6.62 2.72 1.43 0 2.71-.2 3.84-.6 1.13-.4 2.06-.95 2.81-1.63v-7.01h-6.56v-.63h7.22v7.86z"
					/>
				</g>
				<g id="g35" clip-path="url(#clippath-4)" style="mix-blend-mode: multiply">
					<path
						id="path31"
						d="M264.28 394.02c11.68-2.48 20.46-9.47 24.14-16.27l-.09 9.57 18.62-3.96-.04-88.4-18.62 3.96v14.15c-4.69-6.25-16.61-12.39-31.17-9.29-27.26 5.79-41.78 31.51-35.81 59.59 4.82 22.67 23.16 34.87 42.97 30.66z"
						class="cls-2"
					/>
					<path
						id="path33"
						d="M264.57 377.43c-12.83 2.73-22.94-3.83-26.02-18.32-3.82-17.99 6.28-33.54 22.11-36.9 13-2.76 23.1 3.8 26.18 18.29 3.82 17.99-6.28 33.54-22.28 36.93zm61.2 36.66 73.66-15.65-.14-19.47-54.16 11.51.15-104.13-19.5 4.15zm.82-136.99 18.7-3.98-.15-43.38c.13-17.82 9.77-29.3 20.65-31.61 3.06-.65 5.89-.72 9.16-.35l-.17-20.07c-2.49 0-4.73.3-7.11.8-10.03 2.14-19.56 9.14-22.56 20.1l.13-14.44-18.7 3.98.05 88.94zm-68.83 16.31c43.63-8.48 59.25-42.4 51.93-80.02-.26-1.34-.55-2.84-.95-3.98l-60.02 11.67-.27 19.14 42.8-8.32c-.82 21.67-13.43 38.01-35.5 42.29-25.08 4.88-41.9-8.51-46.29-31.08-5.04-25.91 10.22-50.05 36.97-55.25 15.88-3.09 28.41 1.59 36.81 11.76l21.73-4.22c-11.18-20.04-33.13-32.08-60.54-26.75-42.8 8.32-61.59 43.72-54.51 80.17 6.01 30.93 32.72 51.41 67.83 44.59z"
						class="cls-2"
					/>
				</g>
			</g>
		</g>
	</g>
</svg>
